<svg width="35" height="8" viewBox="0 0 35 8" fill="none" xmlns="http://www.w3.org/2000/svg">
<path d="M0.878049 7.70732V8H0.585366V7.70732H0.878049ZM0.878049 7.41463V7.70732H0.585366V7.41463H0.878049ZM0.878049 7.12195V7.41463H0.585366V7.12195H0.878049ZM0.878049 6.82927V7.12195H0.585366V6.82927H0.878049ZM0.878049 6.53659V6.82927H0.585366V6.53659H0.878049ZM0.878049 6.2439V6.53659H0.585366V6.2439H0.878049ZM0.878049 5.95122V6.2439H0.585366V5.95122H0.878049ZM0.878049 5.65854V5.95122H0.585366V5.65854H0.878049ZM0.878049 5.36585V5.65854H0.585366V5.36585H0.878049ZM0.878049 5.07317V5.36585H0.585366V5.07317H0.878049ZM0.878049 4.78049V5.07317H0.585366V4.78049H0.878049ZM0.878049 4.48781V4.78049H0.585366V4.48781H0.878049ZM0.878049 4.19512V4.48781H0.585366V4.19512H0.878049ZM0.878049 3.90244V4.19512H0.585366V3.90244H0.878049ZM0.878049 3.60976V3.90244H0.585366V3.60976H0.878049ZM1.17073 3.60976V3.90244H0.878049V3.60976H1.17073ZM1.17073 3.90244V4.19512H0.878049V3.90244H1.17073ZM1.17073 4.19512V4.48781H0.878049V4.19512H1.17073ZM1.17073 4.48781V4.78049H0.878049V4.48781H1.17073ZM1.17073 4.78049V5.07317H0.878049V4.78049H1.17073ZM1.17073 5.07317V5.36585H0.878049V5.07317H1.17073ZM1.17073 5.36585V5.65854H0.878049V5.36585H1.17073ZM1.46341 5.65854V5.95122H1.17073V5.65854H1.46341ZM1.46341 5.95122V6.2439H1.17073V5.95122H1.46341ZM1.46341 6.2439V6.53659H1.17073V6.2439H1.46341ZM1.46341 6.53659V6.82927H1.17073V6.53659H1.46341ZM1.46341 6.82927V7.12195H1.17073V6.82927H1.46341ZM1.46341 7.12195V7.41463H1.17073V7.12195H1.46341ZM1.46341 7.41463V7.70732H1.17073V7.41463H1.46341ZM1.46341 7.70732V8H1.17073V7.70732H1.46341ZM1.7561 7.70732V8H1.46341V7.70732H1.7561ZM2.04878 7.70732V8H1.7561V7.70732H2.04878ZM2.04878 7.41463V7.70732H1.7561V7.41463H2.04878ZM2.04878 7.12195V7.41463H1.7561V7.12195H2.04878ZM2.04878 6.82927V7.12195H1.7561V6.82927H2.04878ZM2.04878 6.53659V6.82927H1.7561V6.53659H2.04878ZM2.04878 6.2439V6.53659H1.7561V6.2439H2.04878ZM2.04878 5.95122V6.2439H1.7561V5.95122H2.04878ZM2.04878 5.65854V5.95122H1.7561V5.65854H2.04878ZM1.7561 5.65854V5.95122H1.46341V5.65854H1.7561ZM1.7561 5.36585V5.65854H1.46341V5.36585H1.7561ZM1.7561 5.95122V6.2439H1.46341V5.95122H1.7561ZM1.7561 6.2439V6.53659H1.46341V6.2439H1.7561ZM1.7561 6.53659V6.82927H1.46341V6.53659H1.7561ZM1.7561 6.82927V7.12195H1.46341V6.82927H1.7561ZM1.7561 7.12195V7.41463H1.46341V7.12195H1.7561ZM1.7561 7.41463V7.70732H1.46341V7.41463H1.7561ZM1.17073 7.70732V8H0.878049V7.70732H1.17073ZM1.17073 7.41463V7.70732H0.878049V7.41463H1.17073ZM1.17073 7.12195V7.41463H0.878049V7.12195H1.17073ZM1.17073 6.82927V7.12195H0.878049V6.82927H1.17073ZM1.17073 6.53659V6.82927H0.878049V6.53659H1.17073ZM1.17073 6.2439V6.53659H0.878049V6.2439H1.17073ZM1.17073 5.95122V6.2439H0.878049V5.95122H1.17073ZM1.17073 5.65854V5.95122H0.878049V5.65854H1.17073ZM0.878049 2.73171V3.02439H0.585366V2.73171H0.878049ZM0.878049 3.02439V3.31707H0.585366V3.02439H0.878049ZM0.878049 3.31707V3.60976H0.585366V3.31707H0.878049ZM1.7561 2.14634V2.43902H1.46341V2.14634H1.7561ZM1.7561 2.73171V3.02439H1.46341V2.73171H1.7561ZM1.7561 3.02439V3.31707H1.46341V3.02439H1.7561ZM1.7561 3.31707V3.60976H1.46341V3.31707H1.7561ZM1.7561 3.60976V3.90244H1.46341V3.60976H1.7561ZM1.7561 3.90244V4.19512H1.46341V3.90244H1.7561ZM1.7561 4.19512V4.48781H1.46341V4.19512H1.7561ZM1.7561 4.48781V4.78049H1.46341V4.48781H1.7561ZM2.04878 4.78049V5.07317H1.7561V4.78049H2.04878ZM2.04878 5.07317V5.36585H1.7561V5.07317H2.04878ZM2.04878 5.36585V5.65854H1.7561V5.36585H2.04878ZM2.04878 4.48781V4.78049H1.7561V4.48781H2.04878ZM2.04878 4.19512V4.48781H1.7561V4.19512H2.04878ZM2.04878 3.90244V4.19512H1.7561V3.90244H2.04878ZM2.04878 3.60976V3.90244H1.7561V3.60976H2.04878ZM2.04878 3.31707V3.60976H1.7561V3.31707H2.04878ZM2.04878 3.02439V3.31707H1.7561V3.02439H2.04878ZM2.04878 2.73171V3.02439H1.7561V2.73171H2.04878ZM2.04878 2.43902V2.73171H1.7561V2.43902H2.04878ZM2.04878 2.14634V2.43902H1.7561V2.14634H2.04878ZM2.04878 1.85366V2.14634H1.7561V1.85366H2.04878ZM1.7561 2.43902V2.73171H1.46341V2.43902H1.7561ZM2.04878 1.56098V1.85366H1.7561V1.56098H2.04878ZM2.04878 1.26829V1.56098H1.7561V1.26829H2.04878ZM1.46341 2.14634V2.43902H1.17073V2.14634H1.46341ZM1.46341 2.43902V2.73171H1.17073V2.43902H1.46341ZM1.46341 2.73171V3.02439H1.17073V2.73171H1.46341ZM1.17073 3.02439V3.31707H0.878049V3.02439H1.17073ZM1.17073 3.31707V3.60976H0.878049V3.31707H1.17073ZM1.17073 2.73171V3.02439H0.878049V2.73171H1.17073ZM1.17073 2.43902V2.73171H0.878049V2.43902H1.17073ZM1.46341 3.02439V3.31707H1.17073V3.02439H1.46341ZM1.46341 3.31707V3.60976H1.17073V3.31707H1.46341ZM1.46341 3.60976V3.90244H1.17073V3.60976H1.46341ZM1.46341 3.90244V4.19512H1.17073V3.90244H1.46341ZM1.46341 4.19512V4.48781H1.17073V4.19512H1.46341ZM1.46341 4.48781V4.78049H1.17073V4.48781H1.46341ZM1.46341 4.78049V5.07317H1.17073V4.78049H1.46341ZM1.46341 5.07317V5.36585H1.17073V5.07317H1.46341ZM1.46341 5.36585V5.65854H1.17073V5.36585H1.46341ZM1.7561 5.07317V5.36585H1.46341V5.07317H1.7561ZM1.7561 4.78049V5.07317H1.46341V4.78049H1.7561ZM4.09756 7.70732V8H3.80488V7.70732H4.09756ZM4.09756 7.41463V7.70732H3.80488V7.41463H4.09756ZM4.09756 7.12195V7.41463H3.80488V7.12195H4.09756ZM4.09756 6.82927V7.12195H3.80488V6.82927H4.09756ZM4.09756 6.53659V6.82927H3.80488V6.53659H4.09756ZM4.09756 6.2439V6.53659H3.80488V6.2439H4.09756ZM4.09756 5.95122V6.2439H3.80488V5.95122H4.09756ZM4.09756 5.65854V5.95122H3.80488V5.65854H4.09756ZM4.09756 5.36585V5.65854H3.80488V5.36585H4.09756ZM4.09756 5.07317V5.36585H3.80488V5.07317H4.09756ZM4.09756 4.78049V5.07317H3.80488V4.78049H4.09756ZM4.09756 4.48781V4.78049H3.80488V4.48781H4.09756ZM4.09756 4.19512V4.48781H3.80488V4.19512H4.09756ZM4.09756 3.90244V4.19512H3.80488V3.90244H4.09756ZM4.09756 3.60976V3.90244H3.80488V3.60976H4.09756ZM4.39024 3.60976V3.90244H4.09756V3.60976H4.39024ZM4.39024 3.90244V4.19512H4.09756V3.90244H4.39024ZM4.39024 4.19512V4.48781H4.09756V4.19512H4.39024ZM4.39024 4.48781V4.78049H4.09756V4.48781H4.39024ZM4.39024 4.78049V5.07317H4.09756V4.78049H4.39024ZM4.39024 5.07317V5.36585H4.09756V5.07317H4.39024ZM4.39024 5.36585V5.65854H4.09756V5.36585H4.39024ZM4.68293 5.65854V5.95122H4.39024V5.65854H4.68293ZM4.68293 5.95122V6.2439H4.39024V5.95122H4.68293ZM4.68293 6.2439V6.53659H4.39024V6.2439H4.68293ZM4.68293 6.53659V6.82927H4.39024V6.53659H4.68293ZM4.68293 6.82927V7.12195H4.39024V6.82927H4.68293ZM4.68293 7.12195V7.41463H4.39024V7.12195H4.68293ZM4.68293 7.41463V7.70732H4.39024V7.41463H4.68293ZM4.68293 7.70732V8H4.39024V7.70732H4.68293ZM4.97561 7.70732V8H4.68293V7.70732H4.97561ZM5.26829 7.70732V8H4.97561V7.70732H5.26829ZM5.26829 7.41463V7.70732H4.97561V7.41463H5.26829ZM5.26829 7.12195V7.41463H4.97561V7.12195H5.26829ZM5.26829 6.82927V7.12195H4.97561V6.82927H5.26829ZM5.26829 6.53659V6.82927H4.97561V6.53659H5.26829ZM5.26829 6.2439V6.53659H4.97561V6.2439H5.26829ZM5.26829 5.95122V6.2439H4.97561V5.95122H5.26829ZM5.26829 5.65854V5.95122H4.97561V5.65854H5.26829ZM4.97561 5.65854V5.95122H4.68293V5.65854H4.97561ZM4.97561 5.36585V5.65854H4.68293V5.36585H4.97561ZM4.97561 5.95122V6.2439H4.68293V5.95122H4.97561ZM4.97561 6.2439V6.53659H4.68293V6.2439H4.97561ZM4.97561 6.53659V6.82927H4.68293V6.53659H4.97561ZM4.97561 6.82927V7.12195H4.68293V6.82927H4.97561ZM4.97561 7.12195V7.41463H4.68293V7.12195H4.97561ZM4.97561 7.41463V7.70732H4.68293V7.41463H4.97561ZM4.39024 7.70732V8H4.09756V7.70732H4.39024ZM4.39024 7.41463V7.70732H4.09756V7.41463H4.39024ZM4.39024 7.12195V7.41463H4.09756V7.12195H4.39024ZM4.39024 6.82927V7.12195H4.09756V6.82927H4.39024ZM4.39024 6.53659V6.82927H4.09756V6.53659H4.39024ZM4.39024 6.2439V6.53659H4.09756V6.2439H4.39024ZM4.39024 5.95122V6.2439H4.09756V5.95122H4.39024ZM4.39024 5.65854V5.95122H4.09756V5.65854H4.39024ZM4.09756 1.26829V1.56098H3.80488V1.26829H4.09756ZM4.09756 1.56098V1.85366H3.80488V1.56098H4.09756ZM4.09756 1.85366V2.14634H3.80488V1.85366H4.09756ZM4.09756 2.14634V2.43902H3.80488V2.14634H4.09756ZM4.09756 2.43902V2.73171H3.80488V2.43902H4.09756ZM4.09756 2.73171V3.02439H3.80488V2.73171H4.09756ZM4.09756 3.02439V3.31707H3.80488V3.02439H4.09756ZM4.09756 3.31707V3.60976H3.80488V3.31707H4.09756ZM4.97561 2.14634V2.43902H4.68293V2.14634H4.97561ZM4.97561 2.73171V3.02439H4.68293V2.73171H4.97561ZM4.97561 3.02439V3.31707H4.68293V3.02439H4.97561ZM4.97561 3.31707V3.60976H4.68293V3.31707H4.97561ZM4.97561 3.60976V3.90244H4.68293V3.60976H4.97561ZM4.97561 3.90244V4.19512H4.68293V3.90244H4.97561ZM4.97561 4.19512V4.48781H4.68293V4.19512H4.97561ZM4.97561 4.48781V4.78049H4.68293V4.48781H4.97561ZM5.26829 4.78049V5.07317H4.97561V4.78049H5.26829ZM5.26829 5.07317V5.36585H4.97561V5.07317H5.26829ZM5.26829 5.36585V5.65854H4.97561V5.36585H5.26829ZM5.26829 4.48781V4.78049H4.97561V4.48781H5.26829ZM5.26829 4.19512V4.48781H4.97561V4.19512H5.26829ZM5.26829 3.90244V4.19512H4.97561V3.90244H5.26829ZM5.26829 3.60976V3.90244H4.97561V3.60976H5.26829ZM5.26829 3.31707V3.60976H4.97561V3.31707H5.26829ZM5.26829 3.02439V3.31707H4.97561V3.02439H5.26829ZM5.26829 2.73171V3.02439H4.97561V2.73171H5.26829ZM5.26829 2.43902V2.73171H4.97561V2.43902H5.26829ZM4.97561 2.43902V2.73171H4.68293V2.43902H4.97561ZM4.68293 1.85366V2.14634H4.39024V1.85366H4.68293ZM4.68293 2.14634V2.43902H4.39024V2.14634H4.68293ZM4.68293 2.43902V2.73171H4.39024V2.43902H4.68293ZM4.68293 2.73171V3.02439H4.39024V2.73171H4.68293ZM4.39024 3.02439V3.31707H4.09756V3.02439H4.39024ZM4.39024 3.31707V3.60976H4.09756V3.31707H4.39024ZM4.39024 2.73171V3.02439H4.09756V2.73171H4.39024ZM4.39024 2.43902V2.73171H4.09756V2.43902H4.39024ZM4.39024 2.14634V2.43902H4.09756V2.14634H4.39024ZM4.39024 1.85366V2.14634H4.09756V1.85366H4.39024ZM4.39024 1.56098V1.85366H4.09756V1.56098H4.39024ZM4.68293 3.02439V3.31707H4.39024V3.02439H4.68293ZM4.68293 3.31707V3.60976H4.39024V3.31707H4.68293ZM4.68293 3.60976V3.90244H4.39024V3.60976H4.68293ZM4.68293 3.90244V4.19512H4.39024V3.90244H4.68293ZM4.68293 4.19512V4.48781H4.39024V4.19512H4.68293ZM4.68293 4.48781V4.78049H4.39024V4.48781H4.68293ZM4.68293 4.78049V5.07317H4.39024V4.78049H4.68293ZM4.68293 5.07317V5.36585H4.39024V5.07317H4.68293ZM4.68293 5.36585V5.65854H4.39024V5.36585H4.68293ZM4.97561 5.07317V5.36585H4.68293V5.07317H4.97561ZM4.97561 4.78049V5.07317H4.68293V4.78049H4.97561ZM2.63415 0.682927V0.97561H2.34146V0.682927H2.63415ZM2.92683 0.682927V0.97561H2.63415V0.682927H2.92683ZM3.21951 0.682927V0.97561H2.92683V0.682927H3.21951ZM3.51219 0.682927V0.97561H3.21951V0.682927H3.51219ZM3.80488 0.97561V1.26829H3.51219V0.97561H3.80488ZM3.51219 0.97561V1.26829H3.21951V0.97561H3.51219ZM3.21951 0.97561V1.26829H2.92683V0.97561H3.21951ZM2.92683 0.97561V1.26829H2.63415V0.97561H2.92683ZM2.63415 0.97561V1.26829H2.34146V0.97561H2.63415ZM2.34146 0.97561V1.26829H2.04878V0.97561H2.34146ZM2.34146 1.26829V1.56098H2.04878V1.26829H2.34146ZM2.34146 1.56098V1.85366H2.04878V1.56098H2.34146ZM2.63415 1.26829V1.56098H2.34146V1.26829H2.63415ZM2.92683 1.26829V1.56098H2.63415V1.26829H2.92683ZM3.21951 1.26829V1.56098H2.92683V1.26829H3.21951ZM3.51219 1.26829V1.56098H3.21951V1.26829H3.51219ZM3.80488 1.26829V1.56098H3.51219V1.26829H3.80488ZM3.80488 1.56098V1.85366H3.51219V1.56098H3.80488ZM3.51219 1.56098V1.85366H3.21951V1.56098H3.51219ZM3.21951 1.56098V1.85366H2.92683V1.56098H3.21951ZM2.92683 1.56098V1.85366H2.63415V1.56098H2.92683ZM2.63415 1.56098V1.85366H2.34146V1.56098H2.63415ZM2.34146 1.85366V2.14634H2.04878V1.85366H2.34146ZM2.63415 1.85366V2.14634H2.34146V1.85366H2.63415ZM3.80488 1.85366V2.14634H3.51219V1.85366H3.80488ZM3.51219 1.85366V2.14634H3.21951V1.85366H3.51219ZM3.80488 2.14634V2.43902H3.51219V2.14634H3.80488ZM2.34146 2.14634V2.43902H2.04878V2.14634H2.34146ZM1.7561 1.56098V1.85366H1.46341V1.56098H1.7561ZM1.7561 1.85366V2.14634H1.46341V1.85366H1.7561ZM1.46341 1.85366V2.14634H1.17073V1.85366H1.46341ZM1.17073 2.14634V2.43902H0.878049V2.14634H1.17073ZM0.878049 2.43902V2.73171H0.585366V2.43902H0.878049ZM2.34146 2.43902V2.73171H2.04878V2.43902H2.34146ZM2.63415 2.14634V2.43902H2.34146V2.14634H2.63415ZM2.92683 1.85366V2.14634H2.63415V1.85366H2.92683ZM3.21951 1.85366V2.14634H2.92683V1.85366H3.21951ZM3.51219 2.14634V2.43902H3.21951V2.14634H3.51219ZM3.80488 2.43902V2.73171H3.51219V2.43902H3.80488ZM2.34146 5.95122V6.2439H2.04878V5.95122H2.34146ZM2.63415 5.95122V6.2439H2.34146V5.95122H2.63415ZM2.92683 5.95122V6.2439H2.63415V5.95122H2.92683ZM3.21951 5.95122V6.2439H2.92683V5.95122H3.21951ZM3.51219 5.95122V6.2439H3.21951V5.95122H3.51219ZM3.80488 5.95122V6.2439H3.51219V5.95122H3.80488ZM3.80488 5.65854V5.95122H3.51219V5.65854H3.80488ZM3.51219 5.65854V5.95122H3.21951V5.65854H3.51219ZM3.21951 5.65854V5.95122H2.92683V5.65854H3.21951ZM2.92683 5.65854V5.95122H2.63415V5.65854H2.92683ZM2.63415 5.65854V5.95122H2.34146V5.65854H2.63415ZM2.34146 5.65854V5.95122H2.04878V5.65854H2.34146ZM2.34146 5.36585V5.65854H2.04878V5.36585H2.34146ZM2.63415 5.36585V5.65854H2.34146V5.36585H2.63415ZM2.92683 5.36585V5.65854H2.63415V5.36585H2.92683ZM3.21951 5.36585V5.65854H2.92683V5.36585H3.21951ZM3.51219 5.36585V5.65854H3.21951V5.36585H3.51219ZM3.80488 5.36585V5.65854H3.51219V5.36585H3.80488ZM3.80488 5.07317V5.36585H3.51219V5.07317H3.80488ZM3.51219 5.07317V5.36585H3.21951V5.07317H3.51219ZM3.21951 5.07317V5.36585H2.92683V5.07317H3.21951ZM2.92683 5.07317V5.36585H2.63415V5.07317H2.92683ZM2.63415 5.07317V5.36585H2.34146V5.07317H2.63415ZM2.34146 5.07317V5.36585H2.04878V5.07317H2.34146ZM2.34146 4.78049V5.07317H2.04878V4.78049H2.34146ZM2.63415 4.78049V5.07317H2.34146V4.78049H2.63415ZM2.92683 4.78049V5.07317H2.63415V4.78049H2.92683ZM3.21951 4.78049V5.07317H2.92683V4.78049H3.21951ZM3.51219 4.78049V5.07317H3.21951V4.78049H3.51219ZM3.80488 4.78049V5.07317H3.51219V4.78049H3.80488ZM2.92683 2.14634V2.43902H2.63415V2.14634H2.92683ZM3.21951 2.14634V2.43902H2.92683V2.14634H3.21951ZM2.63415 2.43902V2.73171H2.34146V2.43902H2.63415ZM2.34146 2.73171V3.02439H2.04878V2.73171H2.34146ZM3.51219 2.43902V2.73171H3.21951V2.43902H3.51219ZM3.80488 2.73171V3.02439H3.51219V2.73171H3.80488ZM6.73742 7.70732V8H6.44474V7.70732H6.73742ZM6.73742 7.41463V7.70732H6.44474V7.41463H6.73742ZM6.73742 7.12195V7.41463H6.44474V7.12195H6.73742ZM6.73742 6.82927V7.12195H6.44474V6.82927H6.73742ZM6.73742 6.53659V6.82927H6.44474V6.53659H6.73742ZM6.73742 6.2439V6.53659H6.44474V6.2439H6.73742ZM6.73742 5.95122V6.2439H6.44474V5.95122H6.73742ZM6.73742 5.65854V5.95122H6.44474V5.65854H6.73742ZM6.73742 5.36585V5.65854H6.44474V5.36585H6.73742ZM6.73742 5.07317V5.36585H6.44474V5.07317H6.73742ZM6.73742 4.78049V5.07317H6.44474V4.78049H6.73742ZM6.73742 4.48781V4.78049H6.44474V4.48781H6.73742ZM6.73742 4.19512V4.48781H6.44474V4.19512H6.73742ZM6.73742 3.90244V4.19512H6.44474V3.90244H6.73742ZM6.73742 3.60976V3.90244H6.44474V3.60976H6.73742ZM7.03011 3.60976V3.90244H6.73742V3.60976H7.03011ZM7.03011 3.90244V4.19512H6.73742V3.90244H7.03011ZM7.03011 4.19512V4.48781H6.73742V4.19512H7.03011ZM7.03011 4.48781V4.78049H6.73742V4.48781H7.03011ZM7.03011 4.78049V5.07317H6.73742V4.78049H7.03011ZM7.03011 5.07317V5.36585H6.73742V5.07317H7.03011ZM7.03011 5.36585V5.65854H6.73742V5.36585H7.03011ZM7.32279 5.65854V5.95122H7.03011V5.65854H7.32279ZM7.32279 5.95122V6.2439H7.03011V5.95122H7.32279ZM7.32279 6.2439V6.53659H7.03011V6.2439H7.32279ZM7.32279 6.53659V6.82927H7.03011V6.53659H7.32279ZM7.32279 6.82927V7.12195H7.03011V6.82927H7.32279ZM7.32279 7.12195V7.41463H7.03011V7.12195H7.32279ZM7.32279 7.41463V7.70732H7.03011V7.41463H7.32279ZM7.32279 7.70732V8H7.03011V7.70732H7.32279ZM7.61547 7.70732V8H7.32279V7.70732H7.61547ZM7.90816 7.70732V8H7.61547V7.70732H7.90816ZM7.90816 6.53659V6.82927H7.61547V6.53659H7.90816ZM7.90816 6.2439V6.53659H7.61547V6.2439H7.90816ZM7.90816 5.95122V6.2439H7.61547V5.95122H7.90816ZM7.90816 5.65854V5.95122H7.61547V5.65854H7.90816ZM7.61547 5.65854V5.95122H7.32279V5.65854H7.61547ZM7.61547 5.36585V5.65854H7.32279V5.36585H7.61547ZM7.61547 5.95122V6.2439H7.32279V5.95122H7.61547ZM7.61547 6.2439V6.53659H7.32279V6.2439H7.61547ZM7.61547 6.53659V6.82927H7.32279V6.53659H7.61547ZM7.61547 6.82927V7.12195H7.32279V6.82927H7.61547ZM7.61547 7.12195V7.41463H7.32279V7.12195H7.61547ZM7.61547 7.41463V7.70732H7.32279V7.41463H7.61547ZM7.03011 7.70732V8H6.73742V7.70732H7.03011ZM7.03011 7.41463V7.70732H6.73742V7.41463H7.03011ZM7.03011 7.12195V7.41463H6.73742V7.12195H7.03011ZM7.03011 6.82927V7.12195H6.73742V6.82927H7.03011ZM7.03011 6.53659V6.82927H6.73742V6.53659H7.03011ZM7.03011 6.2439V6.53659H6.73742V6.2439H7.03011ZM7.03011 5.95122V6.2439H6.73742V5.95122H7.03011ZM7.03011 5.65854V5.95122H6.73742V5.65854H7.03011ZM6.73742 0.682927V0.97561H6.44474V0.682927H6.73742ZM6.73742 0.97561V1.26829H6.44474V0.97561H6.73742ZM6.73742 1.26829V1.56098H6.44474V1.26829H6.73742ZM6.73742 1.56098V1.85366H6.44474V1.56098H6.73742ZM6.73742 1.85366V2.14634H6.44474V1.85366H6.73742ZM6.73742 2.14634V2.43902H6.44474V2.14634H6.73742ZM6.73742 2.43902V2.73171H6.44474V2.43902H6.73742ZM6.73742 2.73171V3.02439H6.44474V2.73171H6.73742ZM6.73742 3.02439V3.31707H6.44474V3.02439H6.73742ZM6.73742 3.31707V3.60976H6.44474V3.31707H6.73742ZM7.61547 0.682927V0.97561H7.32279V0.682927H7.61547ZM7.61547 0.97561V1.26829H7.32279V0.97561H7.61547ZM7.61547 1.26829V1.56098H7.32279V1.26829H7.61547ZM7.61547 1.56098V1.85366H7.32279V1.56098H7.61547ZM7.61547 1.85366V2.14634H7.32279V1.85366H7.61547ZM7.61547 2.14634V2.43902H7.32279V2.14634H7.61547ZM7.61547 2.73171V3.02439H7.32279V2.73171H7.61547ZM7.61547 3.02439V3.31707H7.32279V3.02439H7.61547ZM7.61547 3.31707V3.60976H7.32279V3.31707H7.61547ZM7.61547 3.60976V3.90244H7.32279V3.60976H7.61547ZM7.61547 3.90244V4.19512H7.32279V3.90244H7.61547ZM7.61547 4.19512V4.48781H7.32279V4.19512H7.61547ZM7.61547 4.48781V4.78049H7.32279V4.48781H7.61547ZM7.90816 4.78049V5.07317H7.61547V4.78049H7.90816ZM7.90816 5.07317V5.36585H7.61547V5.07317H7.90816ZM7.90816 5.36585V5.65854H7.61547V5.36585H7.90816ZM7.90816 4.48781V4.78049H7.61547V4.48781H7.90816ZM7.90816 4.19512V4.48781H7.61547V4.19512H7.90816ZM7.90816 3.90244V4.19512H7.61547V3.90244H7.90816ZM7.90816 3.60976V3.90244H7.61547V3.60976H7.90816ZM7.90816 3.31707V3.60976H7.61547V3.31707H7.90816ZM7.90816 3.02439V3.31707H7.61547V3.02439H7.90816ZM7.90816 2.73171V3.02439H7.61547V2.73171H7.90816ZM7.90816 2.43902V2.73171H7.61547V2.43902H7.90816ZM7.90816 2.14634V2.43902H7.61547V2.14634H7.90816ZM7.90816 1.85366V2.14634H7.61547V1.85366H7.90816ZM7.61547 2.43902V2.73171H7.32279V2.43902H7.61547ZM7.90816 1.56098V1.85366H7.61547V1.56098H7.90816ZM7.90816 1.26829V1.56098H7.61547V1.26829H7.90816ZM7.90816 0.97561V1.26829H7.61547V0.97561H7.90816ZM7.90816 0.682927V0.97561H7.61547V0.682927H7.90816ZM7.32279 0.682927V0.97561H7.03011V0.682927H7.32279ZM7.03011 0.682927V0.97561H6.73742V0.682927H7.03011ZM7.03011 0.97561V1.26829H6.73742V0.97561H7.03011ZM7.32279 0.97561V1.26829H7.03011V0.97561H7.32279ZM7.32279 1.26829V1.56098H7.03011V1.26829H7.32279ZM7.32279 1.56098V1.85366H7.03011V1.56098H7.32279ZM7.32279 1.85366V2.14634H7.03011V1.85366H7.32279ZM7.32279 2.14634V2.43902H7.03011V2.14634H7.32279ZM7.32279 2.43902V2.73171H7.03011V2.43902H7.32279ZM7.32279 2.73171V3.02439H7.03011V2.73171H7.32279ZM7.03011 3.02439V3.31707H6.73742V3.02439H7.03011ZM7.03011 3.31707V3.60976H6.73742V3.31707H7.03011ZM7.03011 2.73171V3.02439H6.73742V2.73171H7.03011ZM7.03011 2.43902V2.73171H6.73742V2.43902H7.03011ZM7.03011 2.14634V2.43902H6.73742V2.14634H7.03011ZM7.03011 1.85366V2.14634H6.73742V1.85366H7.03011ZM7.03011 1.56098V1.85366H6.73742V1.56098H7.03011ZM7.03011 1.26829V1.56098H6.73742V1.26829H7.03011ZM7.32279 3.02439V3.31707H7.03011V3.02439H7.32279ZM7.32279 3.31707V3.60976H7.03011V3.31707H7.32279ZM7.32279 3.60976V3.90244H7.03011V3.60976H7.32279ZM7.32279 3.90244V4.19512H7.03011V3.90244H7.32279ZM7.32279 4.19512V4.48781H7.03011V4.19512H7.32279ZM7.32279 4.48781V4.78049H7.03011V4.48781H7.32279ZM7.32279 4.78049V5.07317H7.03011V4.78049H7.32279ZM7.32279 5.07317V5.36585H7.03011V5.07317H7.32279ZM7.32279 5.36585V5.65854H7.03011V5.36585H7.32279ZM7.61547 5.07317V5.36585H7.32279V5.07317H7.61547ZM7.61547 4.78049V5.07317H7.32279V4.78049H7.61547ZM8.20084 4.78049V5.07317H7.90816V4.78049H8.20084ZM8.49352 4.78049V5.07317H8.20084V4.78049H8.49352ZM8.49352 5.07317V5.36585H8.20084V5.07317H8.49352ZM8.20084 5.07317V5.36585H7.90816V5.07317H8.20084ZM8.20084 4.19512V4.48781H7.90816V4.19512H8.20084ZM8.49352 4.19512V4.48781H8.20084V4.19512H8.49352ZM8.20084 5.36585V5.65854H7.90816V5.36585H8.20084ZM8.49352 5.36585V5.65854H8.20084V5.36585H8.49352ZM8.49352 4.48781V4.78049H8.20084V4.48781H8.49352ZM8.20084 4.48781V4.78049H7.90816V4.48781H8.20084ZM8.20084 0.682927V0.97561H7.90816V0.682927H8.20084ZM8.49352 0.682927V0.97561H8.20084V0.682927H8.49352ZM8.49352 0.97561V1.26829H8.20084V0.97561H8.49352ZM8.20084 0.97561V1.26829H7.90816V0.97561H8.20084ZM8.20084 1.26829V1.56098H7.90816V1.26829H8.20084ZM8.49352 1.26829V1.56098H8.20084V1.26829H8.49352ZM8.49352 1.56098V1.85366H8.20084V1.56098H8.49352ZM8.20084 1.56098V1.85366H7.90816V1.56098H8.20084ZM8.20084 1.85366V2.14634H7.90816V1.85366H8.20084ZM8.49352 1.85366V2.14634H8.20084V1.85366H8.49352ZM8.7862 4.19512V4.48781H8.49352V4.19512H8.7862ZM9.07889 4.19512V4.48781H8.7862V4.19512H9.07889ZM9.37157 4.19512V4.48781H9.07889V4.19512H9.37157ZM9.66425 3.90244V4.19512H9.37157V3.90244H9.66425ZM9.95694 3.60976V3.90244H9.66425V3.60976H9.95694ZM9.95694 3.31707V3.60976H9.66425V3.31707H9.95694ZM9.95694 2.43902V2.73171H9.66425V2.43902H9.95694ZM9.66425 2.14634V2.43902H9.37157V2.14634H9.66425ZM9.37157 1.85366V2.14634H9.07889V1.85366H9.37157ZM9.07889 1.85366V2.14634H8.7862V1.85366H9.07889ZM8.7862 1.85366V2.14634H8.49352V1.85366H8.7862ZM8.7862 0.682927V0.97561H8.49352V0.682927H8.7862ZM9.07889 0.682927V0.97561H8.7862V0.682927H9.07889ZM9.37157 0.682927V0.97561H9.07889V0.682927H9.37157ZM9.66425 0.682927V0.97561H9.37157V0.682927H9.66425ZM9.66425 0.97561V1.26829H9.37157V0.97561H9.66425ZM9.66425 1.26829V1.56098H9.37157V1.26829H9.66425ZM9.66425 1.56098V1.85366H9.37157V1.56098H9.66425ZM9.37157 1.56098V1.85366H9.07889V1.56098H9.37157ZM9.37157 1.26829V1.56098H9.07889V1.26829H9.37157ZM9.07889 1.26829V1.56098H8.7862V1.26829H9.07889ZM8.7862 1.26829V1.56098H8.49352V1.26829H8.7862ZM8.7862 0.97561V1.26829H8.49352V0.97561H8.7862ZM9.07889 0.97561V1.26829H8.7862V0.97561H9.07889ZM9.37157 0.97561V1.26829H9.07889V0.97561H9.37157ZM8.7862 1.56098V1.85366H8.49352V1.56098H8.7862ZM9.07889 1.56098V1.85366H8.7862V1.56098H9.07889ZM9.66425 1.85366V2.14634H9.37157V1.85366H9.66425ZM9.95694 2.14634V2.43902H9.66425V2.14634H9.95694ZM9.95694 1.85366V2.14634H9.66425V1.85366H9.95694ZM9.95694 1.56098V1.85366H9.66425V1.56098H9.95694ZM9.95694 1.26829V1.56098H9.66425V1.26829H9.95694ZM9.95694 0.97561V1.26829H9.66425V0.97561H9.95694ZM9.95694 0.682927V0.97561H9.66425V0.682927H9.95694ZM9.95694 3.90244V4.19512H9.66425V3.90244H9.95694ZM9.95694 4.19512V4.48781H9.66425V4.19512H9.95694ZM9.95694 4.48781V4.78049H9.66425V4.48781H9.95694ZM9.95694 4.78049V5.07317H9.66425V4.78049H9.95694ZM9.66425 4.78049V5.07317H9.37157V4.78049H9.66425ZM9.37157 4.78049V5.07317H9.07889V4.78049H9.37157ZM9.07889 4.78049V5.07317H8.7862V4.78049H9.07889ZM8.7862 4.78049V5.07317H8.49352V4.78049H8.7862ZM8.7862 4.48781V4.78049H8.49352V4.48781H8.7862ZM9.07889 4.48781V4.78049H8.7862V4.48781H9.07889ZM9.37157 4.48781V4.78049H9.07889V4.48781H9.37157ZM9.66425 4.48781V4.78049H9.37157V4.48781H9.66425ZM9.66425 4.19512V4.48781H9.37157V4.19512H9.66425ZM8.7862 5.07317V5.36585H8.49352V5.07317H8.7862ZM9.07889 5.07317V5.36585H8.7862V5.07317H9.07889ZM9.37157 5.07317V5.36585H9.07889V5.07317H9.37157ZM9.66425 5.07317V5.36585H9.37157V5.07317H9.66425ZM9.95694 5.07317V5.36585H9.66425V5.07317H9.95694ZM9.95694 5.36585V5.65854H9.66425V5.36585H9.95694ZM9.66425 5.36585V5.65854H9.37157V5.36585H9.66425ZM9.37157 5.36585V5.65854H9.07889V5.36585H9.37157ZM9.07889 5.36585V5.65854H8.7862V5.36585H9.07889ZM8.7862 5.36585V5.65854H8.49352V5.36585H8.7862ZM10.2496 0.97561V1.26829H9.95694V0.97561H10.2496ZM10.5423 0.97561V1.26829H10.2496V0.97561H10.5423ZM10.5423 1.26829V1.56098H10.2496V1.26829H10.5423ZM10.835 1.26829V1.56098H10.5423V1.26829H10.835ZM10.835 1.56098V1.85366H10.5423V1.56098H10.835ZM10.835 1.85366V2.14634H10.5423V1.85366H10.835ZM11.1277 1.85366V2.14634H10.835V1.85366H11.1277ZM11.1277 2.14634V2.43902H10.835V2.14634H11.1277ZM11.1277 2.43902V2.73171H10.835V2.43902H11.1277ZM11.1277 3.31707V3.60976H10.835V3.31707H11.1277ZM11.1277 3.60976V3.90244H10.835V3.60976H11.1277ZM11.1277 3.90244V4.19512H10.835V3.90244H11.1277ZM11.1277 4.19512V4.48781H10.835V4.19512H11.1277ZM10.835 4.48781V4.78049H10.5423V4.48781H10.835ZM10.5423 4.78049V5.07317H10.2496V4.78049H10.5423ZM10.2496 5.07317V5.36585H9.95694V5.07317H10.2496ZM10.5423 5.07317V5.36585H10.2496V5.07317H10.5423ZM10.2496 5.36585V5.65854H9.95694V5.36585H10.2496ZM10.2496 1.26829V1.56098H9.95694V1.26829H10.2496ZM10.2496 1.56098V1.85366H9.95694V1.56098H10.2496ZM10.2496 1.85366V2.14634H9.95694V1.85366H10.2496ZM10.2496 2.14634V2.43902H9.95694V2.14634H10.2496ZM10.2496 2.43902V2.73171H9.95694V2.43902H10.2496ZM10.2496 3.31707V3.60976H9.95694V3.31707H10.2496ZM10.2496 3.60976V3.90244H9.95694V3.60976H10.2496ZM10.2496 3.90244V4.19512H9.95694V3.90244H10.2496ZM10.2496 4.19512V4.48781H9.95694V4.19512H10.2496ZM10.2496 4.48781V4.78049H9.95694V4.48781H10.2496ZM10.2496 4.78049V5.07317H9.95694V4.78049H10.2496ZM10.5423 4.48781V4.78049H10.2496V4.48781H10.5423ZM10.5423 4.19512V4.48781H10.2496V4.19512H10.5423ZM10.5423 3.90244V4.19512H10.2496V3.90244H10.5423ZM10.5423 3.60976V3.90244H10.2496V3.60976H10.5423ZM10.5423 3.31707V3.60976H10.2496V3.31707H10.5423ZM10.5423 2.43902V2.73171H10.2496V2.43902H10.5423ZM10.5423 2.14634V2.43902H10.2496V2.14634H10.5423ZM10.5423 1.85366V2.14634H10.2496V1.85366H10.5423ZM10.5423 1.56098V1.85366H10.2496V1.56098H10.5423ZM10.835 2.14634V2.43902H10.5423V2.14634H10.835ZM10.835 2.43902V2.73171H10.5423V2.43902H10.835ZM10.835 3.31707V3.60976H10.5423V3.31707H10.835ZM10.835 3.60976V3.90244H10.5423V3.60976H10.835ZM10.835 3.90244V4.19512H10.5423V3.90244H10.835ZM10.835 4.19512V4.48781H10.5423V4.19512H10.835ZM7.90816 7.12195V7.41463H7.61547V7.12195H7.90816ZM7.90816 7.41463V7.70732H7.61547V7.41463H7.90816ZM7.90816 6.82927V7.12195H7.61547V6.82927H7.90816ZM9.95694 2.73171V3.02439H9.66425V2.73171H9.95694ZM10.2496 2.73171V3.02439H9.95694V2.73171H10.2496ZM10.5423 2.73171V3.02439H10.2496V2.73171H10.5423ZM10.835 2.73171V3.02439H10.5423V2.73171H10.835ZM11.1277 2.73171V3.02439H10.835V2.73171H11.1277ZM11.1277 3.02439V3.31707H10.835V3.02439H11.1277ZM10.835 3.02439V3.31707H10.5423V3.02439H10.835ZM10.5423 3.02439V3.31707H10.2496V3.02439H10.5423ZM10.2496 3.02439V3.31707H9.95694V3.02439H10.2496ZM9.95694 3.02439V3.31707H9.66425V3.02439H9.95694ZM10.835 5.07317V5.36585H10.5423V5.07317H10.835ZM11.1277 5.36585V5.65854H10.835V5.36585H11.1277ZM11.1277 5.65854V5.95122H10.835V5.65854H11.1277ZM11.1277 5.95122V6.2439H10.835V5.95122H11.1277ZM11.1277 6.2439V6.53659H10.835V6.2439H11.1277ZM11.1277 6.53659V6.82927H10.835V6.53659H11.1277ZM11.1277 6.82927V7.12195H10.835V6.82927H11.1277ZM11.1277 7.70732V8H10.835V7.70732H11.1277ZM11.1277 7.41463V7.70732H10.835V7.41463H11.1277ZM11.1277 7.12195V7.41463H10.835V7.12195H11.1277ZM10.835 7.70732V8H10.5423V7.70732H10.835ZM10.5423 7.70732V8H10.2496V7.70732H10.5423ZM10.2496 7.70732V8H9.95694V7.70732H10.2496ZM10.2496 7.41463V7.70732H9.95694V7.41463H10.2496ZM10.2496 7.12195V7.41463H9.95694V7.12195H10.2496ZM10.2496 6.82927V7.12195H9.95694V6.82927H10.2496ZM10.2496 6.53659V6.82927H9.95694V6.53659H10.2496ZM10.5423 6.53659V6.82927H10.2496V6.53659H10.5423ZM10.5423 6.2439V6.53659H10.2496V6.2439H10.5423ZM10.835 6.2439V6.53659H10.5423V6.2439H10.835ZM10.835 6.53659V6.82927H10.5423V6.53659H10.835ZM10.835 6.82927V7.12195H10.5423V6.82927H10.835ZM10.835 7.12195V7.41463H10.5423V7.12195H10.835ZM10.835 7.41463V7.70732H10.5423V7.41463H10.835ZM10.5423 7.41463V7.70732H10.2496V7.41463H10.5423ZM10.5423 7.12195V7.41463H10.2496V7.12195H10.5423ZM10.5423 6.82927V7.12195H10.2496V6.82927H10.5423ZM9.95694 7.70732V8H9.66425V7.70732H9.95694ZM9.95694 7.41463V7.70732H9.66425V7.41463H9.95694ZM9.95694 7.12195V7.41463H9.66425V7.12195H9.95694ZM9.95694 6.82927V7.12195H9.66425V6.82927H9.95694ZM9.95694 6.53659V6.82927H9.66425V6.53659H9.95694ZM9.95694 6.2439V6.53659H9.66425V6.2439H9.95694ZM9.95694 5.95122V6.2439H9.66425V5.95122H9.95694ZM9.95694 5.65854V5.95122H9.66425V5.65854H9.95694ZM10.2496 5.65854V5.95122H9.95694V5.65854H10.2496ZM10.5423 5.65854V5.95122H10.2496V5.65854H10.5423ZM10.835 5.65854V5.95122H10.5423V5.65854H10.835ZM10.835 5.36585V5.65854H10.5423V5.36585H10.835ZM10.5423 5.36585V5.65854H10.2496V5.36585H10.5423ZM10.5423 5.95122V6.2439H10.2496V5.95122H10.5423ZM10.2496 5.95122V6.2439H9.95694V5.95122H10.2496ZM10.2496 6.2439V6.53659H9.95694V6.2439H10.2496ZM10.835 5.95122V6.2439H10.5423V5.95122H10.835ZM12.5968 6.53659V6.82927H12.3041V6.53659H12.5968ZM12.5968 6.2439V6.53659H12.3041V6.2439H12.5968ZM12.5968 5.95122V6.2439H12.3041V5.95122H12.5968ZM12.5968 5.65854V5.95122H12.3041V5.65854H12.5968ZM12.5968 5.36585V5.65854H12.3041V5.36585H12.5968ZM12.5968 5.07317V5.36585H12.3041V5.07317H12.5968ZM12.5968 4.78049V5.07317H12.3041V4.78049H12.5968ZM12.5968 4.48781V4.78049H12.3041V4.48781H12.5968ZM12.5968 4.19512V4.48781H12.3041V4.19512H12.5968ZM12.5968 3.90244V4.19512H12.3041V3.90244H12.5968ZM12.5968 3.60976V3.90244H12.3041V3.60976H12.5968ZM12.8895 3.60976V3.90244H12.5968V3.60976H12.8895ZM12.8895 3.90244V4.19512H12.5968V3.90244H12.8895ZM12.8895 4.19512V4.48781H12.5968V4.19512H12.8895ZM12.8895 4.48781V4.78049H12.5968V4.48781H12.8895ZM12.8895 4.78049V5.07317H12.5968V4.78049H12.8895ZM12.8895 5.07317V5.36585H12.5968V5.07317H12.8895ZM12.8895 5.36585V5.65854H12.5968V5.36585H12.8895ZM13.1822 5.65854V5.95122H12.8895V5.65854H13.1822ZM13.1822 5.95122V6.2439H12.8895V5.95122H13.1822ZM13.1822 6.2439V6.53659H12.8895V6.2439H13.1822ZM13.1822 6.53659V6.82927H12.8895V6.53659H13.1822ZM13.1822 6.82927V7.12195H12.8895V6.82927H13.1822ZM13.1822 7.12195V7.41463H12.8895V7.12195H13.1822ZM13.1822 7.41463V7.70732H12.8895V7.41463H13.1822ZM13.7675 7.70732V8H13.4748V7.70732H13.7675ZM13.7675 7.41463V7.70732H13.4748V7.41463H13.7675ZM13.7675 7.12195V7.41463H13.4748V7.12195H13.7675ZM13.7675 6.82927V7.12195H13.4748V6.82927H13.7675ZM13.7675 6.53659V6.82927H13.4748V6.53659H13.7675ZM13.7675 6.2439V6.53659H13.4748V6.2439H13.7675ZM13.7675 5.95122V6.2439H13.4748V5.95122H13.7675ZM13.7675 5.65854V5.95122H13.4748V5.65854H13.7675ZM13.4748 5.65854V5.95122H13.1822V5.65854H13.4748ZM13.4748 5.36585V5.65854H13.1822V5.36585H13.4748ZM13.4748 5.95122V6.2439H13.1822V5.95122H13.4748ZM13.4748 6.2439V6.53659H13.1822V6.2439H13.4748ZM13.4748 6.53659V6.82927H13.1822V6.53659H13.4748ZM13.4748 6.82927V7.12195H13.1822V6.82927H13.4748ZM13.4748 7.12195V7.41463H13.1822V7.12195H13.4748ZM13.4748 7.41463V7.70732H13.1822V7.41463H13.4748ZM12.8895 7.12195V7.41463H12.5968V7.12195H12.8895ZM12.8895 6.82927V7.12195H12.5968V6.82927H12.8895ZM12.8895 6.53659V6.82927H12.5968V6.53659H12.8895ZM12.8895 6.2439V6.53659H12.5968V6.2439H12.8895ZM12.8895 5.95122V6.2439H12.5968V5.95122H12.8895ZM12.8895 5.65854V5.95122H12.5968V5.65854H12.8895ZM12.5968 3.31707V3.60976H12.3041V3.31707H12.5968ZM13.4748 3.31707V3.60976H13.1822V3.31707H13.4748ZM13.4748 3.60976V3.90244H13.1822V3.60976H13.4748ZM13.4748 3.90244V4.19512H13.1822V3.90244H13.4748ZM13.4748 4.19512V4.48781H13.1822V4.19512H13.4748ZM13.4748 4.48781V4.78049H13.1822V4.48781H13.4748ZM13.7675 4.78049V5.07317H13.4748V4.78049H13.7675ZM13.7675 5.07317V5.36585H13.4748V5.07317H13.7675ZM13.7675 5.36585V5.65854H13.4748V5.36585H13.7675ZM13.7675 4.48781V4.78049H13.4748V4.48781H13.7675ZM13.7675 4.19512V4.48781H13.4748V4.19512H13.7675ZM13.7675 3.90244V4.19512H13.4748V3.90244H13.7675ZM13.7675 3.60976V3.90244H13.4748V3.60976H13.7675ZM13.7675 3.31707V3.60976H13.4748V3.31707H13.7675ZM12.8895 3.31707V3.60976H12.5968V3.31707H12.8895ZM13.1822 3.31707V3.60976H12.8895V3.31707H13.1822ZM13.1822 3.60976V3.90244H12.8895V3.60976H13.1822ZM13.1822 3.90244V4.19512H12.8895V3.90244H13.1822ZM13.1822 4.19512V4.48781H12.8895V4.19512H13.1822ZM13.1822 4.48781V4.78049H12.8895V4.48781H13.1822ZM13.1822 4.78049V5.07317H12.8895V4.78049H13.1822ZM13.1822 5.07317V5.36585H12.8895V5.07317H13.1822ZM13.1822 5.36585V5.65854H12.8895V5.36585H13.1822ZM13.4748 5.07317V5.36585H13.1822V5.07317H13.4748ZM13.4748 4.78049V5.07317H13.1822V4.78049H13.4748ZM16.109 7.70732V8H15.8163V7.70732H16.109ZM16.109 7.41463V7.70732H15.8163V7.41463H16.109ZM16.109 7.12195V7.41463H15.8163V7.12195H16.109ZM16.109 6.82927V7.12195H15.8163V6.82927H16.109ZM16.109 6.53659V6.82927H15.8163V6.53659H16.109ZM16.109 6.2439V6.53659H15.8163V6.2439H16.109ZM16.109 5.95122V6.2439H15.8163V5.95122H16.109ZM16.6944 5.95122V6.2439H16.4017V5.95122H16.6944ZM16.6944 6.2439V6.53659H16.4017V6.2439H16.6944ZM16.6944 6.53659V6.82927H16.4017V6.53659H16.6944ZM16.6944 6.82927V7.12195H16.4017V6.82927H16.6944ZM16.6944 7.12195V7.41463H16.4017V7.12195H16.6944ZM16.6944 7.41463V7.70732H16.4017V7.41463H16.6944ZM17.2797 6.53659V6.82927H16.987V6.53659H17.2797ZM17.2797 6.2439V6.53659H16.987V6.2439H17.2797ZM17.2797 5.95122V6.2439H16.987V5.95122H17.2797ZM16.987 5.95122V6.2439H16.6944V5.95122H16.987ZM16.987 6.2439V6.53659H16.6944V6.2439H16.987ZM16.987 6.53659V6.82927H16.6944V6.53659H16.987ZM16.987 6.82927V7.12195H16.6944V6.82927H16.987ZM16.987 7.12195V7.41463H16.6944V7.12195H16.987ZM16.4017 7.41463V7.70732H16.109V7.41463H16.4017ZM16.4017 7.12195V7.41463H16.109V7.12195H16.4017ZM16.4017 6.82927V7.12195H16.109V6.82927H16.4017ZM16.4017 6.53659V6.82927H16.109V6.53659H16.4017ZM16.4017 6.2439V6.53659H16.109V6.2439H16.4017ZM16.4017 5.95122V6.2439H16.109V5.95122H16.4017ZM14.0602 7.70732V8H13.7675V7.70732H14.0602ZM14.3529 7.70732V8H14.0602V7.70732H14.3529ZM14.6456 7.70732V8H14.3529V7.70732H14.6456ZM14.9383 7.70732V8H14.6456V7.70732H14.9383ZM15.2309 7.70732V8H14.9383V7.70732H15.2309ZM15.8163 7.70732V8H15.5236V7.70732H15.8163ZM15.8163 7.41463V7.70732H15.5236V7.41463H15.8163ZM15.2309 7.41463V7.70732H14.9383V7.41463H15.2309ZM14.9383 7.41463V7.70732H14.6456V7.41463H14.9383ZM14.6456 7.41463V7.70732H14.3529V7.41463H14.6456ZM14.3529 7.41463V7.70732H14.0602V7.41463H14.3529ZM14.0602 7.41463V7.70732H13.7675V7.41463H14.0602ZM14.0602 7.12195V7.41463H13.7675V7.12195H14.0602ZM14.3529 7.12195V7.41463H14.0602V7.12195H14.3529ZM14.6456 7.12195V7.41463H14.3529V7.12195H14.6456ZM14.9383 7.12195V7.41463H14.6456V7.12195H14.9383ZM15.2309 7.12195V7.41463H14.9383V7.12195H15.2309ZM15.8163 7.12195V7.41463H15.5236V7.12195H15.8163ZM15.8163 6.82927V7.12195H15.5236V6.82927H15.8163ZM15.2309 6.82927V7.12195H14.9383V6.82927H15.2309ZM14.9383 6.82927V7.12195H14.6456V6.82927H14.9383ZM14.6456 6.82927V7.12195H14.3529V6.82927H14.6456ZM14.3529 6.82927V7.12195H14.0602V6.82927H14.3529ZM14.0602 6.82927V7.12195H13.7675V6.82927H14.0602ZM14.0602 6.53659V6.82927H13.7675V6.53659H14.0602ZM15.8163 6.53659V6.82927H15.5236V6.53659H15.8163ZM16.987 2.14634V1.85366H17.2797V2.14634H16.987ZM16.987 2.43902V2.14634H17.2797V2.43902H16.987ZM16.987 2.73171V2.43902H17.2797V2.73171H16.987ZM16.4017 2.73171V2.43902H16.6944V2.73171H16.4017ZM16.4017 2.43902V2.14634H16.6944V2.43902H16.4017ZM16.4017 2.14634V1.85366H16.6944V2.14634H16.4017ZM16.4017 1.85366V1.56098H16.6944V1.85366H16.4017ZM16.4017 1.56098V1.26829H16.6944V1.56098H16.4017ZM16.4017 1.26829V0.97561H16.6944V1.26829H16.4017ZM15.8163 0.97561V0.682927H16.109V0.97561H15.8163ZM15.8163 1.26829V0.97561H16.109V1.26829H15.8163ZM15.8163 1.56098V1.26829H16.109V1.56098H15.8163ZM15.8163 1.85366V1.56098H16.109V1.85366H15.8163ZM15.8163 2.14634V1.85366H16.109V2.14634H15.8163ZM15.8163 2.43902V2.14634H16.109V2.43902H15.8163ZM15.8163 2.73171V2.43902H16.109V2.73171H15.8163ZM16.109 2.73171V2.43902H16.4017V2.73171H16.109ZM16.109 2.43902V2.14634H16.4017V2.43902H16.109ZM16.109 2.14634V1.85366H16.4017V2.14634H16.109ZM16.109 1.85366V1.56098H16.4017V1.85366H16.109ZM16.109 1.56098V1.26829H16.4017V1.56098H16.109ZM16.109 1.26829V0.97561H16.4017V1.26829H16.109ZM16.6944 1.56098V1.26829H16.987V1.56098H16.6944ZM16.6944 1.85366V1.56098H16.987V1.85366H16.6944ZM16.6944 2.14634V1.85366H16.987V2.14634H16.6944ZM16.6944 2.43902V2.14634H16.987V2.43902H16.6944ZM16.6944 2.73171V2.43902H16.987V2.73171H16.6944ZM13.4748 0.97561V0.682927H13.7675V0.97561H13.4748ZM13.4748 1.26829V0.97561H13.7675V1.26829H13.4748ZM13.4748 1.56098V1.26829H13.7675V1.56098H13.4748ZM13.4748 1.85366V1.56098H13.7675V1.85366H13.4748ZM13.4748 2.14634V1.85366H13.7675V2.14634H13.4748ZM13.4748 2.43902V2.14634H13.7675V2.43902H13.4748ZM13.4748 2.73171V2.43902H13.7675V2.73171H13.4748ZM12.8895 2.73171V2.43902H13.1822V2.73171H12.8895ZM12.8895 2.43902V2.14634H13.1822V2.43902H12.8895ZM12.8895 2.14634V1.85366H13.1822V2.14634H12.8895ZM12.8895 1.85366V1.56098H13.1822V1.85366H12.8895ZM12.8895 1.56098V1.26829H13.1822V1.56098H12.8895ZM12.8895 1.26829V0.97561H13.1822V1.26829H12.8895ZM12.3041 2.14634V1.85366H12.5968V2.14634H12.3041ZM12.3041 2.43902V2.14634H12.5968V2.43902H12.3041ZM12.3041 2.73171V2.43902H12.5968V2.73171H12.3041ZM12.5968 2.73171V2.43902H12.8895V2.73171H12.5968ZM12.5968 2.43902V2.14634H12.8895V2.43902H12.5968ZM12.5968 2.14634V1.85366H12.8895V2.14634H12.5968ZM12.5968 1.85366V1.56098H12.8895V1.85366H12.5968ZM12.5968 1.56098V1.26829H12.8895V1.56098H12.5968ZM13.1822 1.26829V0.97561H13.4748V1.26829H13.1822ZM13.1822 1.56098V1.26829H13.4748V1.56098H13.1822ZM13.1822 1.85366V1.56098H13.4748V1.85366H13.1822ZM13.1822 2.14634V1.85366H13.4748V2.14634H13.1822ZM13.1822 2.43902V2.14634H13.4748V2.43902H13.1822ZM13.1822 2.73171V2.43902H13.4748V2.73171H13.1822ZM15.5236 0.97561V0.682927H15.8163V0.97561H15.5236ZM14.9383 0.97561V0.682927H15.2309V0.97561H14.9383ZM14.6456 0.97561V0.682927H14.9383V0.97561H14.6456ZM14.3529 0.97561V0.682927H14.6456V0.97561H14.3529ZM14.0602 0.97561V0.682927H14.3529V0.97561H14.0602ZM13.7675 0.97561V0.682927H14.0602V0.97561H13.7675ZM13.7675 1.26829V0.97561H14.0602V1.26829H13.7675ZM14.0602 1.26829V0.97561H14.3529V1.26829H14.0602ZM14.3529 1.26829V0.97561H14.6456V1.26829H14.3529ZM14.6456 1.26829V0.97561H14.9383V1.26829H14.6456ZM14.9383 1.26829V0.97561H15.2309V1.26829H14.9383ZM15.5236 1.26829V0.97561H15.8163V1.26829H15.5236ZM15.5236 1.56098V1.26829H15.8163V1.56098H15.5236ZM14.9383 1.56098V1.26829H15.2309V1.56098H14.9383ZM14.6456 1.56098V1.26829H14.9383V1.56098H14.6456ZM14.3529 1.56098V1.26829H14.6456V1.56098H14.3529ZM14.0602 1.56098V1.26829H14.3529V1.56098H14.0602ZM13.7675 1.56098V1.26829H14.0602V1.56098H13.7675ZM13.7675 1.85366V1.56098H14.0602V1.85366H13.7675ZM14.0602 1.85366V1.56098H14.3529V1.85366H14.0602ZM14.3529 1.85366V1.56098H14.6456V1.85366H14.3529ZM14.6456 1.85366V1.56098H14.9383V1.85366H14.6456ZM14.9383 1.85366V1.56098H15.2309V1.85366H14.9383ZM15.5236 1.85366V1.56098H15.8163V1.85366H15.5236ZM15.5236 2.14634V1.85366H15.8163V2.14634H15.5236ZM13.7675 2.14634V1.85366H14.0602V2.14634H13.7675ZM12.5968 3.02439V3.31707H12.3041V3.02439H12.5968ZM12.8895 3.02439V3.31707H12.5968V3.02439H12.8895ZM12.5968 2.73171V3.02439H12.3041V2.73171H12.5968ZM13.4748 2.73171V3.02439H13.1822V2.73171H13.4748ZM13.4748 3.02439V3.31707H13.1822V3.02439H13.4748ZM13.7675 3.02439V3.31707H13.4748V3.02439H13.7675ZM13.7675 2.73171V3.02439H13.4748V2.73171H13.7675ZM12.8895 2.73171V3.02439H12.5968V2.73171H12.8895ZM13.1822 2.73171V3.02439H12.8895V2.73171H13.1822ZM13.1822 3.02439V3.31707H12.8895V3.02439H13.1822ZM14.3529 6.53659V6.82927H14.0602V6.53659H14.3529ZM14.6456 6.53659V6.82927H14.3529V6.53659H14.6456ZM14.9383 6.53659V6.82927H14.6456V6.53659H14.9383ZM15.2309 6.53659V6.82927H14.9383V6.53659H15.2309ZM15.8163 6.2439V6.53659H15.5236V6.2439H15.8163ZM14.0602 6.2439V6.53659H13.7675V6.2439H14.0602ZM16.109 5.65854V5.95122H15.8163V5.65854H16.109ZM16.4017 5.65854V5.95122H16.109V5.65854H16.4017ZM16.6944 5.65854V5.95122H16.4017V5.65854H16.6944ZM16.987 5.65854V5.95122H16.6944V5.65854H16.987ZM17.2797 5.65854V5.95122H16.987V5.65854H17.2797ZM14.0602 2.14634V2.43902H13.7675V2.14634H14.0602ZM14.3529 1.85366V2.14634H14.0602V1.85366H14.3529ZM14.6456 1.85366V2.14634H14.3529V1.85366H14.6456ZM14.9383 1.85366V2.14634H14.6456V1.85366H14.9383ZM15.2309 1.85366V2.14634H14.9383V1.85366H15.2309ZM15.8163 2.14634V2.43902H15.5236V2.14634H15.8163ZM16.109 2.73171V3.02439H15.8163V2.73171H16.109ZM16.4017 2.73171V3.02439H16.109V2.73171H16.4017ZM16.6944 2.73171V3.02439H16.4017V2.73171H16.6944ZM16.987 2.73171V3.02439H16.6944V2.73171H16.987ZM17.2797 2.73171V3.02439H16.987V2.73171H17.2797ZM15.5236 0.682927V0.97561H15.2309V0.682927H15.5236ZM15.5236 0.97561V1.26829H15.2309V0.97561H15.5236ZM15.5236 1.26829V1.56098H15.2309V1.26829H15.5236ZM15.5236 1.56098V1.85366H15.2309V1.56098H15.5236ZM15.5236 1.85366V2.14634H15.2309V1.85366H15.5236ZM15.5236 6.53659V6.82927H15.2309V6.53659H15.5236ZM15.5236 6.82927V7.12195H15.2309V6.82927H15.5236ZM15.5236 7.12195V7.41463H15.2309V7.12195H15.5236ZM15.5236 7.41463V7.70732H15.2309V7.41463H15.5236ZM15.5236 7.70732V8H15.2309V7.70732H15.5236ZM18.7374 7.70732V8H18.4447V7.70732H18.7374ZM18.7374 7.41463V7.70732H18.4447V7.41463H18.7374ZM18.7374 7.12195V7.41463H18.4447V7.12195H18.7374ZM18.7374 6.82927V7.12195H18.4447V6.82927H18.7374ZM18.7374 6.53659V6.82927H18.4447V6.53659H18.7374ZM18.7374 6.2439V6.53659H18.4447V6.2439H18.7374ZM18.7374 5.95122V6.2439H18.4447V5.95122H18.7374ZM18.7374 5.65854V5.95122H18.4447V5.65854H18.7374ZM18.7374 5.36585V5.65854H18.4447V5.36585H18.7374ZM18.7374 5.07317V5.36585H18.4447V5.07317H18.7374ZM18.7374 4.78049V5.07317H18.4447V4.78049H18.7374ZM18.7374 4.48781V4.78049H18.4447V4.48781H18.7374ZM18.7374 4.19512V4.48781H18.4447V4.19512H18.7374ZM18.7374 3.90244V4.19512H18.4447V3.90244H18.7374ZM18.7374 3.60976V3.90244H18.4447V3.60976H18.7374ZM19.0301 3.60976V3.90244H18.7374V3.60976H19.0301ZM19.0301 3.90244V4.19512H18.7374V3.90244H19.0301ZM19.0301 4.19512V4.48781H18.7374V4.19512H19.0301ZM19.0301 4.48781V4.78049H18.7374V4.48781H19.0301ZM19.0301 4.78049V5.07317H18.7374V4.78049H19.0301ZM19.0301 5.07317V5.36585H18.7374V5.07317H19.0301ZM19.0301 5.36585V5.65854H18.7374V5.36585H19.0301ZM19.3228 5.65854V5.95122H19.0301V5.65854H19.3228ZM19.3228 5.95122V6.2439H19.0301V5.95122H19.3228ZM19.3228 6.2439V6.53659H19.0301V6.2439H19.3228ZM19.3228 6.53659V6.82927H19.0301V6.53659H19.3228ZM19.3228 6.82927V7.12195H19.0301V6.82927H19.3228ZM19.3228 7.12195V7.41463H19.0301V7.12195H19.3228ZM19.3228 7.41463V7.70732H19.0301V7.41463H19.3228ZM19.3228 7.70732V8H19.0301V7.70732H19.3228ZM19.6155 7.70732V8H19.3228V7.70732H19.6155ZM19.9082 7.70732V8H19.6155V7.70732H19.9082ZM19.9082 7.41463V7.70732H19.6155V7.41463H19.9082ZM19.9082 7.12195V7.41463H19.6155V7.12195H19.9082ZM19.9082 6.82927V7.12195H19.6155V6.82927H19.9082ZM19.9082 6.53659V6.82927H19.6155V6.53659H19.9082ZM19.9082 6.2439V6.53659H19.6155V6.2439H19.9082ZM19.9082 5.95122V6.2439H19.6155V5.95122H19.9082ZM19.9082 5.65854V5.95122H19.6155V5.65854H19.9082ZM19.6155 5.65854V5.95122H19.3228V5.65854H19.6155ZM19.6155 5.36585V5.65854H19.3228V5.36585H19.6155ZM19.6155 5.95122V6.2439H19.3228V5.95122H19.6155ZM19.6155 6.2439V6.53659H19.3228V6.2439H19.6155ZM19.6155 6.53659V6.82927H19.3228V6.53659H19.6155ZM19.6155 6.82927V7.12195H19.3228V6.82927H19.6155ZM19.6155 7.12195V7.41463H19.3228V7.12195H19.6155ZM19.6155 7.41463V7.70732H19.3228V7.41463H19.6155ZM19.0301 7.70732V8H18.7374V7.70732H19.0301ZM19.0301 7.41463V7.70732H18.7374V7.41463H19.0301ZM19.0301 7.12195V7.41463H18.7374V7.12195H19.0301ZM19.0301 6.82927V7.12195H18.7374V6.82927H19.0301ZM19.0301 6.53659V6.82927H18.7374V6.53659H19.0301ZM19.0301 6.2439V6.53659H18.7374V6.2439H19.0301ZM19.0301 5.95122V6.2439H18.7374V5.95122H19.0301ZM19.0301 5.65854V5.95122H18.7374V5.65854H19.0301ZM18.7374 2.73171V3.02439H18.4447V2.73171H18.7374ZM18.7374 3.02439V3.31707H18.4447V3.02439H18.7374ZM18.7374 3.31707V3.60976H18.4447V3.31707H18.7374ZM19.6155 2.14634V2.43902H19.3228V2.14634H19.6155ZM19.6155 2.73171V3.02439H19.3228V2.73171H19.6155ZM19.6155 3.02439V3.31707H19.3228V3.02439H19.6155ZM19.6155 3.31707V3.60976H19.3228V3.31707H19.6155ZM19.6155 3.60976V3.90244H19.3228V3.60976H19.6155ZM19.6155 3.90244V4.19512H19.3228V3.90244H19.6155ZM19.6155 4.19512V4.48781H19.3228V4.19512H19.6155ZM19.6155 4.48781V4.78049H19.3228V4.48781H19.6155ZM19.9082 4.78049V5.07317H19.6155V4.78049H19.9082ZM19.9082 5.07317V5.36585H19.6155V5.07317H19.9082ZM19.9082 5.36585V5.65854H19.6155V5.36585H19.9082ZM19.9082 4.48781V4.78049H19.6155V4.48781H19.9082ZM19.9082 4.19512V4.48781H19.6155V4.19512H19.9082ZM19.9082 3.90244V4.19512H19.6155V3.90244H19.9082ZM19.9082 3.60976V3.90244H19.6155V3.60976H19.9082ZM19.9082 3.31707V3.60976H19.6155V3.31707H19.9082ZM19.9082 3.02439V3.31707H19.6155V3.02439H19.9082ZM19.9082 2.73171V3.02439H19.6155V2.73171H19.9082ZM19.9082 2.43902V2.73171H19.6155V2.43902H19.9082ZM19.9082 2.14634V2.43902H19.6155V2.14634H19.9082ZM19.9082 1.85366V2.14634H19.6155V1.85366H19.9082ZM19.6155 2.43902V2.73171H19.3228V2.43902H19.6155ZM19.9082 1.56098V1.85366H19.6155V1.56098H19.9082ZM19.9082 1.26829V1.56098H19.6155V1.26829H19.9082ZM19.3228 2.14634V2.43902H19.0301V2.14634H19.3228ZM19.3228 2.43902V2.73171H19.0301V2.43902H19.3228ZM19.3228 2.73171V3.02439H19.0301V2.73171H19.3228ZM19.0301 3.02439V3.31707H18.7374V3.02439H19.0301ZM19.0301 3.31707V3.60976H18.7374V3.31707H19.0301ZM19.0301 2.73171V3.02439H18.7374V2.73171H19.0301ZM19.0301 2.43902V2.73171H18.7374V2.43902H19.0301ZM19.3228 3.02439V3.31707H19.0301V3.02439H19.3228ZM19.3228 3.31707V3.60976H19.0301V3.31707H19.3228ZM19.3228 3.60976V3.90244H19.0301V3.60976H19.3228ZM19.3228 3.90244V4.19512H19.0301V3.90244H19.3228ZM19.3228 4.19512V4.48781H19.0301V4.19512H19.3228ZM19.3228 4.48781V4.78049H19.0301V4.48781H19.3228ZM19.3228 4.78049V5.07317H19.0301V4.78049H19.3228ZM19.3228 5.07317V5.36585H19.0301V5.07317H19.3228ZM19.3228 5.36585V5.65854H19.0301V5.36585H19.3228ZM19.6155 5.07317V5.36585H19.3228V5.07317H19.6155ZM19.6155 4.78049V5.07317H19.3228V4.78049H19.6155ZM21.9569 7.70732V8H21.6643V7.70732H21.9569ZM21.9569 7.41463V7.70732H21.6643V7.41463H21.9569ZM21.9569 7.12195V7.41463H21.6643V7.12195H21.9569ZM21.9569 6.82927V7.12195H21.6643V6.82927H21.9569ZM21.9569 6.53659V6.82927H21.6643V6.53659H21.9569ZM21.9569 6.2439V6.53659H21.6643V6.2439H21.9569ZM21.9569 5.95122V6.2439H21.6643V5.95122H21.9569ZM21.9569 5.65854V5.95122H21.6643V5.65854H21.9569ZM21.9569 5.36585V5.65854H21.6643V5.36585H21.9569ZM21.9569 5.07317V5.36585H21.6643V5.07317H21.9569ZM21.9569 4.78049V5.07317H21.6643V4.78049H21.9569ZM21.9569 4.48781V4.78049H21.6643V4.48781H21.9569ZM21.9569 4.19512V4.48781H21.6643V4.19512H21.9569ZM21.9569 3.90244V4.19512H21.6643V3.90244H21.9569ZM21.9569 3.60976V3.90244H21.6643V3.60976H21.9569ZM22.2496 3.60976V3.90244H21.9569V3.60976H22.2496ZM22.2496 3.90244V4.19512H21.9569V3.90244H22.2496ZM22.2496 4.19512V4.48781H21.9569V4.19512H22.2496ZM22.2496 4.48781V4.78049H21.9569V4.48781H22.2496ZM22.2496 4.78049V5.07317H21.9569V4.78049H22.2496ZM22.2496 5.07317V5.36585H21.9569V5.07317H22.2496ZM22.2496 5.36585V5.65854H21.9569V5.36585H22.2496ZM22.5423 5.65854V5.95122H22.2496V5.65854H22.5423ZM22.5423 5.95122V6.2439H22.2496V5.95122H22.5423ZM22.5423 6.2439V6.53659H22.2496V6.2439H22.5423ZM22.5423 6.53659V6.82927H22.2496V6.53659H22.5423ZM22.5423 6.82927V7.12195H22.2496V6.82927H22.5423ZM22.5423 7.12195V7.41463H22.2496V7.12195H22.5423ZM22.5423 7.41463V7.70732H22.2496V7.41463H22.5423ZM22.5423 7.70732V8H22.2496V7.70732H22.5423ZM22.835 7.70732V8H22.5423V7.70732H22.835ZM23.1277 7.70732V8H22.835V7.70732H23.1277ZM23.1277 7.41463V7.70732H22.835V7.41463H23.1277ZM23.1277 7.12195V7.41463H22.835V7.12195H23.1277ZM23.1277 6.82927V7.12195H22.835V6.82927H23.1277ZM23.1277 6.53659V6.82927H22.835V6.53659H23.1277ZM23.1277 6.2439V6.53659H22.835V6.2439H23.1277ZM23.1277 5.95122V6.2439H22.835V5.95122H23.1277ZM23.1277 5.65854V5.95122H22.835V5.65854H23.1277ZM22.835 5.65854V5.95122H22.5423V5.65854H22.835ZM22.835 5.36585V5.65854H22.5423V5.36585H22.835ZM22.835 5.95122V6.2439H22.5423V5.95122H22.835ZM22.835 6.2439V6.53659H22.5423V6.2439H22.835ZM22.835 6.53659V6.82927H22.5423V6.53659H22.835ZM22.835 6.82927V7.12195H22.5423V6.82927H22.835ZM22.835 7.12195V7.41463H22.5423V7.12195H22.835ZM22.835 7.41463V7.70732H22.5423V7.41463H22.835ZM22.2496 7.70732V8H21.9569V7.70732H22.2496ZM22.2496 7.41463V7.70732H21.9569V7.41463H22.2496ZM22.2496 7.12195V7.41463H21.9569V7.12195H22.2496ZM22.2496 6.82927V7.12195H21.9569V6.82927H22.2496ZM22.2496 6.53659V6.82927H21.9569V6.53659H22.2496ZM22.2496 6.2439V6.53659H21.9569V6.2439H22.2496ZM22.2496 5.95122V6.2439H21.9569V5.95122H22.2496ZM22.2496 5.65854V5.95122H21.9569V5.65854H22.2496ZM21.9569 1.26829V1.56098H21.6643V1.26829H21.9569ZM21.9569 1.56098V1.85366H21.6643V1.56098H21.9569ZM21.9569 1.85366V2.14634H21.6643V1.85366H21.9569ZM21.9569 2.14634V2.43902H21.6643V2.14634H21.9569ZM21.9569 2.43902V2.73171H21.6643V2.43902H21.9569ZM21.9569 2.73171V3.02439H21.6643V2.73171H21.9569ZM21.9569 3.02439V3.31707H21.6643V3.02439H21.9569ZM21.9569 3.31707V3.60976H21.6643V3.31707H21.9569ZM22.835 2.14634V2.43902H22.5423V2.14634H22.835ZM22.835 2.73171V3.02439H22.5423V2.73171H22.835ZM22.835 3.02439V3.31707H22.5423V3.02439H22.835ZM22.835 3.31707V3.60976H22.5423V3.31707H22.835ZM22.835 3.60976V3.90244H22.5423V3.60976H22.835ZM22.835 3.90244V4.19512H22.5423V3.90244H22.835ZM22.835 4.19512V4.48781H22.5423V4.19512H22.835ZM22.835 4.48781V4.78049H22.5423V4.48781H22.835ZM23.1277 4.78049V5.07317H22.835V4.78049H23.1277ZM23.1277 5.07317V5.36585H22.835V5.07317H23.1277ZM23.1277 5.36585V5.65854H22.835V5.36585H23.1277ZM23.1277 4.48781V4.78049H22.835V4.48781H23.1277ZM23.1277 4.19512V4.48781H22.835V4.19512H23.1277ZM23.1277 3.90244V4.19512H22.835V3.90244H23.1277ZM23.1277 3.60976V3.90244H22.835V3.60976H23.1277ZM23.1277 3.31707V3.60976H22.835V3.31707H23.1277ZM23.1277 3.02439V3.31707H22.835V3.02439H23.1277ZM23.1277 2.73171V3.02439H22.835V2.73171H23.1277ZM23.1277 2.43902V2.73171H22.835V2.43902H23.1277ZM22.835 2.43902V2.73171H22.5423V2.43902H22.835ZM22.5423 1.85366V2.14634H22.2496V1.85366H22.5423ZM22.5423 2.14634V2.43902H22.2496V2.14634H22.5423ZM22.5423 2.43902V2.73171H22.2496V2.43902H22.5423ZM22.5423 2.73171V3.02439H22.2496V2.73171H22.5423ZM22.2496 3.02439V3.31707H21.9569V3.02439H22.2496ZM22.2496 3.31707V3.60976H21.9569V3.31707H22.2496ZM22.2496 2.73171V3.02439H21.9569V2.73171H22.2496ZM22.2496 2.43902V2.73171H21.9569V2.43902H22.2496ZM22.2496 2.14634V2.43902H21.9569V2.14634H22.2496ZM22.2496 1.85366V2.14634H21.9569V1.85366H22.2496ZM22.2496 1.56098V1.85366H21.9569V1.56098H22.2496ZM22.5423 3.02439V3.31707H22.2496V3.02439H22.5423ZM22.5423 3.31707V3.60976H22.2496V3.31707H22.5423ZM22.5423 3.60976V3.90244H22.2496V3.60976H22.5423ZM22.5423 3.90244V4.19512H22.2496V3.90244H22.5423ZM22.5423 4.19512V4.48781H22.2496V4.19512H22.5423ZM22.5423 4.48781V4.78049H22.2496V4.48781H22.5423ZM22.5423 4.78049V5.07317H22.2496V4.78049H22.5423ZM22.5423 5.07317V5.36585H22.2496V5.07317H22.5423ZM22.5423 5.36585V5.65854H22.2496V5.36585H22.5423ZM22.835 5.07317V5.36585H22.5423V5.07317H22.835ZM22.835 4.78049V5.07317H22.5423V4.78049H22.835ZM20.4935 0.682927V0.97561H20.2008V0.682927H20.4935ZM20.7862 0.682927V0.97561H20.4935V0.682927H20.7862ZM21.0789 0.682927V0.97561H20.7862V0.682927H21.0789ZM21.3716 0.682927V0.97561H21.0789V0.682927H21.3716ZM21.6643 0.97561V1.26829H21.3716V0.97561H21.6643ZM21.3716 0.97561V1.26829H21.0789V0.97561H21.3716ZM21.0789 0.97561V1.26829H20.7862V0.97561H21.0789ZM20.7862 0.97561V1.26829H20.4935V0.97561H20.7862ZM20.4935 0.97561V1.26829H20.2008V0.97561H20.4935ZM20.2008 0.97561V1.26829H19.9082V0.97561H20.2008ZM20.2008 1.26829V1.56098H19.9082V1.26829H20.2008ZM20.2008 1.56098V1.85366H19.9082V1.56098H20.2008ZM20.4935 1.26829V1.56098H20.2008V1.26829H20.4935ZM20.7862 1.26829V1.56098H20.4935V1.26829H20.7862ZM21.0789 1.26829V1.56098H20.7862V1.26829H21.0789ZM21.3716 1.26829V1.56098H21.0789V1.26829H21.3716ZM21.6643 1.26829V1.56098H21.3716V1.26829H21.6643ZM21.6643 1.56098V1.85366H21.3716V1.56098H21.6643ZM21.3716 1.56098V1.85366H21.0789V1.56098H21.3716ZM21.0789 1.56098V1.85366H20.7862V1.56098H21.0789ZM20.7862 1.56098V1.85366H20.4935V1.56098H20.7862ZM20.4935 1.56098V1.85366H20.2008V1.56098H20.4935ZM20.2008 1.85366V2.14634H19.9082V1.85366H20.2008ZM20.4935 1.85366V2.14634H20.2008V1.85366H20.4935ZM21.6643 1.85366V2.14634H21.3716V1.85366H21.6643ZM21.3716 1.85366V2.14634H21.0789V1.85366H21.3716ZM21.6643 2.14634V2.43902H21.3716V2.14634H21.6643ZM20.2008 2.14634V2.43902H19.9082V2.14634H20.2008ZM19.6155 1.56098V1.85366H19.3228V1.56098H19.6155ZM19.6155 1.85366V2.14634H19.3228V1.85366H19.6155ZM19.3228 1.85366V2.14634H19.0301V1.85366H19.3228ZM19.0301 2.14634V2.43902H18.7374V2.14634H19.0301ZM18.7374 2.43902V2.73171H18.4447V2.43902H18.7374ZM20.2008 2.43902V2.73171H19.9082V2.43902H20.2008ZM20.4935 2.14634V2.43902H20.2008V2.14634H20.4935ZM20.7862 1.85366V2.14634H20.4935V1.85366H20.7862ZM21.0789 1.85366V2.14634H20.7862V1.85366H21.0789ZM21.3716 2.14634V2.43902H21.0789V2.14634H21.3716ZM21.6643 2.43902V2.73171H21.3716V2.43902H21.6643ZM20.2008 5.95122V6.2439H19.9082V5.95122H20.2008ZM20.4935 5.95122V6.2439H20.2008V5.95122H20.4935ZM20.7862 5.95122V6.2439H20.4935V5.95122H20.7862ZM21.0789 5.95122V6.2439H20.7862V5.95122H21.0789ZM21.3716 5.95122V6.2439H21.0789V5.95122H21.3716ZM21.6643 5.95122V6.2439H21.3716V5.95122H21.6643ZM21.6643 5.65854V5.95122H21.3716V5.65854H21.6643ZM21.3716 5.65854V5.95122H21.0789V5.65854H21.3716ZM21.0789 5.65854V5.95122H20.7862V5.65854H21.0789ZM20.7862 5.65854V5.95122H20.4935V5.65854H20.7862ZM20.4935 5.65854V5.95122H20.2008V5.65854H20.4935ZM20.2008 5.65854V5.95122H19.9082V5.65854H20.2008ZM20.2008 5.36585V5.65854H19.9082V5.36585H20.2008ZM20.4935 5.36585V5.65854H20.2008V5.36585H20.4935ZM20.7862 5.36585V5.65854H20.4935V5.36585H20.7862ZM21.0789 5.36585V5.65854H20.7862V5.36585H21.0789ZM21.3716 5.36585V5.65854H21.0789V5.36585H21.3716ZM21.6643 5.36585V5.65854H21.3716V5.36585H21.6643ZM21.6643 5.07317V5.36585H21.3716V5.07317H21.6643ZM21.3716 5.07317V5.36585H21.0789V5.07317H21.3716ZM21.0789 5.07317V5.36585H20.7862V5.07317H21.0789ZM20.7862 5.07317V5.36585H20.4935V5.07317H20.7862ZM20.4935 5.07317V5.36585H20.2008V5.07317H20.4935ZM20.2008 5.07317V5.36585H19.9082V5.07317H20.2008ZM20.2008 4.78049V5.07317H19.9082V4.78049H20.2008ZM20.4935 4.78049V5.07317H20.2008V4.78049H20.4935ZM20.7862 4.78049V5.07317H20.4935V4.78049H20.7862ZM21.0789 4.78049V5.07317H20.7862V4.78049H21.0789ZM21.3716 4.78049V5.07317H21.0789V4.78049H21.3716ZM21.6643 4.78049V5.07317H21.3716V4.78049H21.6643ZM20.7862 2.14634V2.43902H20.4935V2.14634H20.7862ZM21.0789 2.14634V2.43902H20.7862V2.14634H21.0789ZM20.4935 2.43902V2.73171H20.2008V2.43902H20.4935ZM20.2008 2.73171V3.02439H19.9082V2.73171H20.2008ZM21.3716 2.43902V2.73171H21.0789V2.43902H21.3716ZM21.6643 2.73171V3.02439H21.3716V2.73171H21.6643ZM24.5968 7.70732V8H24.3041V7.70732H24.5968ZM24.5968 7.41463V7.70732H24.3041V7.41463H24.5968ZM24.5968 7.12195V7.41463H24.3041V7.12195H24.5968ZM24.5968 6.82927V7.12195H24.3041V6.82927H24.5968ZM24.5968 6.53659V6.82927H24.3041V6.53659H24.5968ZM24.5968 6.2439V6.53659H24.3041V6.2439H24.5968ZM24.5968 5.95122V6.2439H24.3041V5.95122H24.5968ZM24.5968 5.65854V5.95122H24.3041V5.65854H24.5968ZM24.5968 5.36585V5.65854H24.3041V5.36585H24.5968ZM24.5968 5.07317V5.36585H24.3041V5.07317H24.5968ZM24.5968 4.78049V5.07317H24.3041V4.78049H24.5968ZM24.5968 4.48781V4.78049H24.3041V4.48781H24.5968ZM24.5968 4.19512V4.48781H24.3041V4.19512H24.5968ZM24.5968 3.90244V4.19512H24.3041V3.90244H24.5968ZM24.5968 3.60976V3.90244H24.3041V3.60976H24.5968ZM24.8895 3.60976V3.90244H24.5968V3.60976H24.8895ZM24.8895 3.90244V4.19512H24.5968V3.90244H24.8895ZM24.8895 4.19512V4.48781H24.5968V4.19512H24.8895ZM24.8895 4.48781V4.78049H24.5968V4.48781H24.8895ZM24.8895 4.78049V5.07317H24.5968V4.78049H24.8895ZM24.8895 5.07317V5.36585H24.5968V5.07317H24.8895ZM24.8895 5.36585V5.65854H24.5968V5.36585H24.8895ZM25.1822 5.65854V5.95122H24.8895V5.65854H25.1822ZM25.1822 5.95122V6.2439H24.8895V5.95122H25.1822ZM25.1822 6.2439V6.53659H24.8895V6.2439H25.1822ZM25.1822 6.53659V6.82927H24.8895V6.53659H25.1822ZM25.1822 6.82927V7.12195H24.8895V6.82927H25.1822ZM25.1822 7.12195V7.41463H24.8895V7.12195H25.1822ZM25.1822 7.41463V7.70732H24.8895V7.41463H25.1822ZM25.1822 7.70732V8H24.8895V7.70732H25.1822ZM25.4748 7.70732V8H25.1822V7.70732H25.4748ZM25.7675 7.70732V8H25.4748V7.70732H25.7675ZM25.7675 7.41463V7.70732H25.4748V7.41463H25.7675ZM25.7675 7.12195V7.41463H25.4748V7.12195H25.7675ZM25.7675 6.82927V7.12195H25.4748V6.82927H25.7675ZM25.7675 6.53659V6.82927H25.4748V6.53659H25.7675ZM25.7675 6.2439V6.53659H25.4748V6.2439H25.7675ZM25.7675 5.95122V6.2439H25.4748V5.95122H25.7675ZM25.7675 5.65854V5.95122H25.4748V5.65854H25.7675ZM25.4748 5.65854V5.95122H25.1822V5.65854H25.4748ZM25.4748 5.36585V5.65854H25.1822V5.36585H25.4748ZM25.4748 5.95122V6.2439H25.1822V5.95122H25.4748ZM25.4748 6.2439V6.53659H25.1822V6.2439H25.4748ZM25.4748 6.53659V6.82927H25.1822V6.53659H25.4748ZM25.4748 6.82927V7.12195H25.1822V6.82927H25.4748ZM25.4748 7.12195V7.41463H25.1822V7.12195H25.4748ZM25.4748 7.41463V7.70732H25.1822V7.41463H25.4748ZM24.8895 7.70732V8H24.5968V7.70732H24.8895ZM24.8895 7.41463V7.70732H24.5968V7.41463H24.8895ZM24.8895 7.12195V7.41463H24.5968V7.12195H24.8895ZM24.8895 6.82927V7.12195H24.5968V6.82927H24.8895ZM24.8895 6.53659V6.82927H24.5968V6.53659H24.8895ZM24.8895 6.2439V6.53659H24.5968V6.2439H24.8895ZM24.8895 5.95122V6.2439H24.5968V5.95122H24.8895ZM24.8895 5.65854V5.95122H24.5968V5.65854H24.8895ZM24.5968 0.682927V0.97561H24.3041V0.682927H24.5968ZM24.5968 0.97561V1.26829H24.3041V0.97561H24.5968ZM24.5968 1.26829V1.56098H24.3041V1.26829H24.5968ZM24.5968 1.56098V1.85366H24.3041V1.56098H24.5968ZM24.5968 1.85366V2.14634H24.3041V1.85366H24.5968ZM24.5968 2.14634V2.43902H24.3041V2.14634H24.5968ZM24.5968 2.43902V2.73171H24.3041V2.43902H24.5968ZM24.5968 2.73171V3.02439H24.3041V2.73171H24.5968ZM24.5968 3.02439V3.31707H24.3041V3.02439H24.5968ZM24.5968 3.31707V3.60976H24.3041V3.31707H24.5968ZM25.4748 0.682927V0.97561H25.1822V0.682927H25.4748ZM25.4748 0.97561V1.26829H25.1822V0.97561H25.4748ZM25.4748 1.26829V1.56098H25.1822V1.26829H25.4748ZM25.4748 1.56098V1.85366H25.1822V1.56098H25.4748ZM25.4748 1.85366V2.14634H25.1822V1.85366H25.4748ZM25.4748 2.14634V2.43902H25.1822V2.14634H25.4748ZM25.4748 2.73171V3.02439H25.1822V2.73171H25.4748ZM25.4748 3.02439V3.31707H25.1822V3.02439H25.4748ZM25.4748 3.31707V3.60976H25.1822V3.31707H25.4748ZM25.4748 3.60976V3.90244H25.1822V3.60976H25.4748ZM25.4748 3.90244V4.19512H25.1822V3.90244H25.4748ZM25.4748 4.19512V4.48781H25.1822V4.19512H25.4748ZM25.4748 4.48781V4.78049H25.1822V4.48781H25.4748ZM25.7675 4.78049V5.07317H25.4748V4.78049H25.7675ZM25.7675 5.07317V5.36585H25.4748V5.07317H25.7675ZM25.7675 5.36585V5.65854H25.4748V5.36585H25.7675ZM25.7675 4.48781V4.78049H25.4748V4.48781H25.7675ZM25.7675 4.19512V4.48781H25.4748V4.19512H25.7675ZM25.7675 3.90244V4.19512H25.4748V3.90244H25.7675ZM25.7675 3.60976V3.90244H25.4748V3.60976H25.7675ZM25.7675 3.31707V3.60976H25.4748V3.31707H25.7675ZM25.7675 3.02439V3.31707H25.4748V3.02439H25.7675ZM25.7675 2.73171V3.02439H25.4748V2.73171H25.7675ZM25.7675 2.43902V2.73171H25.4748V2.43902H25.7675ZM25.7675 2.14634V2.43902H25.4748V2.14634H25.7675ZM25.7675 1.85366V2.14634H25.4748V1.85366H25.7675ZM25.4748 2.43902V2.73171H25.1822V2.43902H25.4748ZM25.7675 1.56098V1.85366H25.4748V1.56098H25.7675ZM25.7675 1.26829V1.56098H25.4748V1.26829H25.7675ZM25.7675 0.97561V1.26829H25.4748V0.97561H25.7675ZM25.7675 0.682927V0.97561H25.4748V0.682927H25.7675ZM25.1822 0.682927V0.97561H24.8895V0.682927H25.1822ZM24.8895 0.682927V0.97561H24.5968V0.682927H24.8895ZM24.8895 0.97561V1.26829H24.5968V0.97561H24.8895ZM25.1822 0.97561V1.26829H24.8895V0.97561H25.1822ZM25.1822 1.26829V1.56098H24.8895V1.26829H25.1822ZM25.1822 1.56098V1.85366H24.8895V1.56098H25.1822ZM25.1822 1.85366V2.14634H24.8895V1.85366H25.1822ZM25.1822 2.14634V2.43902H24.8895V2.14634H25.1822ZM25.1822 2.43902V2.73171H24.8895V2.43902H25.1822ZM25.1822 2.73171V3.02439H24.8895V2.73171H25.1822ZM24.8895 3.02439V3.31707H24.5968V3.02439H24.8895ZM24.8895 3.31707V3.60976H24.5968V3.31707H24.8895ZM24.8895 2.73171V3.02439H24.5968V2.73171H24.8895ZM24.8895 2.43902V2.73171H24.5968V2.43902H24.8895ZM24.8895 2.14634V2.43902H24.5968V2.14634H24.8895ZM24.8895 1.85366V2.14634H24.5968V1.85366H24.8895ZM24.8895 1.56098V1.85366H24.5968V1.56098H24.8895ZM24.8895 1.26829V1.56098H24.5968V1.26829H24.8895ZM25.1822 3.02439V3.31707H24.8895V3.02439H25.1822ZM25.1822 3.31707V3.60976H24.8895V3.31707H25.1822ZM25.1822 3.60976V3.90244H24.8895V3.60976H25.1822ZM25.1822 3.90244V4.19512H24.8895V3.90244H25.1822ZM25.1822 4.19512V4.48781H24.8895V4.19512H25.1822ZM25.1822 4.48781V4.78049H24.8895V4.48781H25.1822ZM25.1822 4.78049V5.07317H24.8895V4.78049H25.1822ZM25.1822 5.07317V5.36585H24.8895V5.07317H25.1822ZM25.1822 5.36585V5.65854H24.8895V5.36585H25.1822ZM25.4748 5.07317V5.36585H25.1822V5.07317H25.4748ZM25.4748 4.78049V5.07317H25.1822V4.78049H25.4748ZM26.0602 0.682927V0.97561H25.7675V0.682927H26.0602ZM26.3529 0.682927V0.97561H26.0602V0.682927H26.3529ZM26.3529 0.97561V1.26829H26.0602V0.97561H26.3529ZM26.0602 0.97561V1.26829H25.7675V0.97561H26.0602ZM26.0602 1.26829V1.56098H25.7675V1.26829H26.0602ZM26.3529 1.26829V1.56098H26.0602V1.26829H26.3529ZM26.3529 1.56098V1.85366H26.0602V1.56098H26.3529ZM26.0602 1.56098V1.85366H25.7675V1.56098H26.0602ZM26.0602 1.85366V2.14634H25.7675V1.85366H26.0602ZM26.3529 1.85366V2.14634H26.0602V1.85366H26.3529ZM26.0602 7.70732V8H25.7675V7.70732H26.0602ZM26.3529 7.70732V8H26.0602V7.70732H26.3529ZM26.3529 7.41463V7.70732H26.0602V7.41463H26.3529ZM26.3529 7.12195V7.41463H26.0602V7.12195H26.3529ZM26.3529 6.82927V7.12195H26.0602V6.82927H26.3529ZM26.3529 6.53659V6.82927H26.0602V6.53659H26.3529ZM26.0602 6.53659V6.82927H25.7675V6.53659H26.0602ZM26.0602 6.82927V7.12195H25.7675V6.82927H26.0602ZM26.0602 7.12195V7.41463H25.7675V7.12195H26.0602ZM26.0602 7.41463V7.70732H25.7675V7.41463H26.0602ZM27.8163 3.02439V3.31707H27.5236V3.02439H27.8163ZM27.8163 2.73171V3.02439H27.5236V2.73171H27.8163ZM27.8163 2.43902V2.73171H27.5236V2.43902H27.8163ZM27.5236 2.14634V2.43902H27.2309V2.14634H27.5236ZM27.2309 1.85366V2.14634H26.9383V1.85366H27.2309ZM26.9383 1.85366V2.14634H26.6456V1.85366H26.9383ZM26.6456 1.85366V2.14634H26.3529V1.85366H26.6456ZM26.6456 0.682927V0.97561H26.3529V0.682927H26.6456ZM26.9383 0.682927V0.97561H26.6456V0.682927H26.9383ZM27.2309 0.682927V0.97561H26.9383V0.682927H27.2309ZM27.5236 0.682927V0.97561H27.2309V0.682927H27.5236ZM27.5236 0.97561V1.26829H27.2309V0.97561H27.5236ZM27.5236 1.26829V1.56098H27.2309V1.26829H27.5236ZM27.5236 1.56098V1.85366H27.2309V1.56098H27.5236ZM27.2309 1.56098V1.85366H26.9383V1.56098H27.2309ZM27.2309 1.26829V1.56098H26.9383V1.26829H27.2309ZM26.9383 1.26829V1.56098H26.6456V1.26829H26.9383ZM26.6456 1.26829V1.56098H26.3529V1.26829H26.6456ZM26.6456 0.97561V1.26829H26.3529V0.97561H26.6456ZM26.9383 0.97561V1.26829H26.6456V0.97561H26.9383ZM27.2309 0.97561V1.26829H26.9383V0.97561H27.2309ZM26.6456 1.56098V1.85366H26.3529V1.56098H26.6456ZM26.9383 1.56098V1.85366H26.6456V1.56098H26.9383ZM27.5236 1.85366V2.14634H27.2309V1.85366H27.5236ZM27.8163 2.14634V2.43902H27.5236V2.14634H27.8163ZM27.8163 1.85366V2.14634H27.5236V1.85366H27.8163ZM27.8163 1.56098V1.85366H27.5236V1.56098H27.8163ZM27.8163 1.26829V1.56098H27.5236V1.26829H27.8163ZM27.8163 0.97561V1.26829H27.5236V0.97561H27.8163ZM27.8163 0.682927V0.97561H27.5236V0.682927H27.8163ZM27.8163 3.31707V3.60976H27.5236V3.31707H27.8163ZM27.8163 3.60976V3.90244H27.5236V3.60976H27.8163ZM27.8163 3.90244V4.19512H27.5236V3.90244H27.8163ZM27.8163 4.19512V4.48781H27.5236V4.19512H27.8163ZM27.8163 4.48781V4.78049H27.5236V4.48781H27.8163ZM27.8163 4.78049V5.07317H27.5236V4.78049H27.8163ZM27.8163 5.36585V5.65854H27.5236V5.36585H27.8163ZM27.8163 5.07317V5.36585H27.5236V5.07317H27.8163ZM27.8163 5.65854V5.95122H27.5236V5.65854H27.8163ZM27.8163 5.95122V6.2439H27.5236V5.95122H27.8163ZM26.6456 6.53659V6.82927H26.3529V6.53659H26.6456ZM26.9383 6.53659V6.82927H26.6456V6.53659H26.9383ZM27.2309 6.53659V6.82927H26.9383V6.53659H27.2309ZM27.5236 6.2439V6.53659H27.2309V6.2439H27.5236ZM27.8163 6.2439V6.53659H27.5236V6.2439H27.8163ZM27.8163 6.53659V6.82927H27.5236V6.53659H27.8163ZM27.5236 6.53659V6.82927H27.2309V6.53659H27.5236ZM27.8163 6.82927V7.12195H27.5236V6.82927H27.8163ZM27.8163 7.12195V7.41463H27.5236V7.12195H27.8163ZM27.8163 7.41463V7.70732H27.5236V7.41463H27.8163ZM27.8163 7.70732V8H27.5236V7.70732H27.8163ZM27.5236 7.70732V8H27.2309V7.70732H27.5236ZM27.5236 7.41463V7.70732H27.2309V7.41463H27.5236ZM27.2309 7.41463V7.70732H26.9383V7.41463H27.2309ZM26.9383 7.70732V8H26.6456V7.70732H26.9383ZM26.6456 7.70732V8H26.3529V7.70732H26.6456ZM27.2309 7.70732V8H26.9383V7.70732H27.2309ZM26.9383 7.41463V7.70732H26.6456V7.41463H26.9383ZM26.6456 7.41463V7.70732H26.3529V7.41463H26.6456ZM26.6456 7.12195V7.41463H26.3529V7.12195H26.6456ZM26.9383 7.12195V7.41463H26.6456V7.12195H26.9383ZM27.2309 7.12195V7.41463H26.9383V7.12195H27.2309ZM27.5236 7.12195V7.41463H27.2309V7.12195H27.5236ZM27.5236 6.82927V7.12195H27.2309V6.82927H27.5236ZM27.2309 6.82927V7.12195H26.9383V6.82927H27.2309ZM26.9383 6.82927V7.12195H26.6456V6.82927H26.9383ZM26.6456 6.82927V7.12195H26.3529V6.82927H26.6456ZM28.109 0.97561V1.26829H27.8163V0.97561H28.109ZM28.4017 0.97561V1.26829H28.109V0.97561H28.4017ZM28.4017 1.26829V1.56098H28.109V1.26829H28.4017ZM28.6944 1.26829V1.56098H28.4017V1.26829H28.6944ZM28.6944 1.56098V1.85366H28.4017V1.56098H28.6944ZM28.6944 1.85366V2.14634H28.4017V1.85366H28.6944ZM28.987 1.85366V2.14634H28.6944V1.85366H28.987ZM28.987 2.14634V2.43902H28.6944V2.14634H28.987ZM28.987 2.43902V2.73171H28.6944V2.43902H28.987ZM28.987 2.73171V3.02439H28.6944V2.73171H28.987ZM28.987 3.02439V3.31707H28.6944V3.02439H28.987ZM28.987 3.31707V3.60976H28.6944V3.31707H28.987ZM28.987 3.60976V3.90244H28.6944V3.60976H28.987ZM28.6944 3.90244V4.19512H28.4017V3.90244H28.6944ZM28.4017 4.19512V4.48781H28.109V4.19512H28.4017ZM28.6944 4.48781V4.78049H28.4017V4.48781H28.6944ZM28.987 4.78049V5.07317H28.6944V4.78049H28.987ZM28.109 7.41463V7.70732H27.8163V7.41463H28.109ZM28.4017 7.41463V7.70732H28.109V7.41463H28.4017ZM28.6944 7.12195V7.41463H28.4017V7.12195H28.6944ZM28.987 6.53659V6.82927H28.6944V6.53659H28.987ZM28.4017 7.12195V7.41463H28.109V7.12195H28.4017ZM28.4017 6.82927V7.12195H28.109V6.82927H28.4017ZM28.6944 6.82927V7.12195H28.4017V6.82927H28.6944ZM28.987 6.2439V6.53659H28.6944V6.2439H28.987ZM28.987 5.95122V6.2439H28.6944V5.95122H28.987ZM28.987 5.65854V5.95122H28.6944V5.65854H28.987ZM28.987 5.36585V5.65854H28.6944V5.36585H28.987ZM28.987 5.07317V5.36585H28.6944V5.07317H28.987ZM28.109 4.48781V4.78049H27.8163V4.48781H28.109ZM28.4017 4.48781V4.78049H28.109V4.48781H28.4017ZM28.4017 4.78049V5.07317H28.109V4.78049H28.4017ZM28.109 4.78049V5.07317H27.8163V4.78049H28.109ZM28.6944 4.78049V5.07317H28.4017V4.78049H28.6944ZM28.6944 5.07317V5.36585H28.4017V5.07317H28.6944ZM28.6944 5.36585V5.65854H28.4017V5.36585H28.6944ZM28.6944 5.65854V5.95122H28.4017V5.65854H28.6944ZM28.6944 5.95122V6.2439H28.4017V5.95122H28.6944ZM28.6944 6.2439V6.53659H28.4017V6.2439H28.6944ZM28.6944 6.53659V6.82927H28.4017V6.53659H28.6944ZM28.4017 6.53659V6.82927H28.109V6.53659H28.4017ZM28.4017 6.2439V6.53659H28.109V6.2439H28.4017ZM28.4017 5.95122V6.2439H28.109V5.95122H28.4017ZM28.4017 5.65854V5.95122H28.109V5.65854H28.4017ZM28.4017 5.36585V5.65854H28.109V5.36585H28.4017ZM28.4017 5.07317V5.36585H28.109V5.07317H28.4017ZM28.109 5.07317V5.36585H27.8163V5.07317H28.109ZM28.109 5.36585V5.65854H27.8163V5.36585H28.109ZM28.109 5.65854V5.95122H27.8163V5.65854H28.109ZM28.109 5.95122V6.2439H27.8163V5.95122H28.109ZM28.109 6.2439V6.53659H27.8163V6.2439H28.109ZM28.109 6.53659V6.82927H27.8163V6.53659H28.109ZM28.109 6.82927V7.12195H27.8163V6.82927H28.109ZM28.109 7.12195V7.41463H27.8163V7.12195H28.109ZM28.109 1.26829V1.56098H27.8163V1.26829H28.109ZM28.109 1.56098V1.85366H27.8163V1.56098H28.109ZM28.109 1.85366V2.14634H27.8163V1.85366H28.109ZM28.109 2.14634V2.43902H27.8163V2.14634H28.109ZM28.109 2.43902V2.73171H27.8163V2.43902H28.109ZM28.109 2.73171V3.02439H27.8163V2.73171H28.109ZM28.109 3.02439V3.31707H27.8163V3.02439H28.109ZM28.109 3.31707V3.60976H27.8163V3.31707H28.109ZM28.109 3.60976V3.90244H27.8163V3.60976H28.109ZM28.109 3.90244V4.19512H27.8163V3.90244H28.109ZM28.109 4.19512V4.48781H27.8163V4.19512H28.109ZM28.4017 3.90244V4.19512H28.109V3.90244H28.4017ZM28.4017 3.60976V3.90244H28.109V3.60976H28.4017ZM28.4017 3.31707V3.60976H28.109V3.31707H28.4017ZM28.4017 3.02439V3.31707H28.109V3.02439H28.4017ZM28.4017 2.73171V3.02439H28.109V2.73171H28.4017ZM28.4017 2.43902V2.73171H28.109V2.43902H28.4017ZM28.4017 2.14634V2.43902H28.109V2.14634H28.4017ZM28.4017 1.85366V2.14634H28.109V1.85366H28.4017ZM28.4017 1.56098V1.85366H28.109V1.56098H28.4017ZM28.6944 2.14634V2.43902H28.4017V2.14634H28.6944ZM28.6944 2.43902V2.73171H28.4017V2.43902H28.6944ZM28.6944 2.73171V3.02439H28.4017V2.73171H28.6944ZM28.6944 3.02439V3.31707H28.4017V3.02439H28.6944ZM28.6944 3.31707V3.60976H28.4017V3.31707H28.6944ZM28.6944 3.60976V3.90244H28.4017V3.60976H28.6944ZM28.987 3.90244V4.19512H28.6944V3.90244H28.987ZM28.987 4.19512V4.48781H28.6944V4.19512H28.987ZM28.987 4.48781V4.78049H28.6944V4.48781H28.987ZM28.6944 4.19512V4.48781H28.4017V4.19512H28.6944ZM30.4562 7.70732V8H30.1635V7.70732H30.4562ZM30.4562 7.41463V7.70732H30.1635V7.41463H30.4562ZM30.4562 7.12195V7.41463H30.1635V7.12195H30.4562ZM30.4562 6.82927V7.12195H30.1635V6.82927H30.4562ZM30.4562 6.53659V6.82927H30.1635V6.53659H30.4562ZM30.4562 6.2439V6.53659H30.1635V6.2439H30.4562ZM30.4562 5.95122V6.2439H30.1635V5.95122H30.4562ZM30.4562 5.65854V5.95122H30.1635V5.65854H30.4562ZM30.4562 5.36585V5.65854H30.1635V5.36585H30.4562ZM30.4562 5.07317V5.36585H30.1635V5.07317H30.4562ZM30.4562 4.78049V5.07317H30.1635V4.78049H30.4562ZM30.4562 4.48781V4.78049H30.1635V4.48781H30.4562ZM30.4562 4.19512V4.48781H30.1635V4.19512H30.4562ZM30.4562 3.90244V4.19512H30.1635V3.90244H30.4562ZM30.4562 3.60976V3.90244H30.1635V3.60976H30.4562ZM30.7489 3.60976V3.90244H30.4562V3.60976H30.7489ZM30.7489 3.90244V4.19512H30.4562V3.90244H30.7489ZM30.7489 4.19512V4.48781H30.4562V4.19512H30.7489ZM30.7489 4.48781V4.78049H30.4562V4.48781H30.7489ZM30.7489 4.78049V5.07317H30.4562V4.78049H30.7489ZM30.7489 5.07317V5.36585H30.4562V5.07317H30.7489ZM30.7489 5.36585V5.65854H30.4562V5.36585H30.7489ZM31.0415 5.65854V5.95122H30.7489V5.65854H31.0415ZM31.0415 5.95122V6.2439H30.7489V5.95122H31.0415ZM31.0415 6.2439V6.53659H30.7489V6.2439H31.0415ZM31.0415 6.53659V6.82927H30.7489V6.53659H31.0415ZM31.0415 6.82927V7.12195H30.7489V6.82927H31.0415ZM31.0415 7.12195V7.41463H30.7489V7.12195H31.0415ZM31.0415 7.41463V7.70732H30.7489V7.41463H31.0415ZM31.0415 7.70732V8H30.7489V7.70732H31.0415ZM31.3342 7.70732V8H31.0415V7.70732H31.3342ZM31.6269 7.70732V8H31.3342V7.70732H31.6269ZM31.6269 7.41463V7.70732H31.3342V7.41463H31.6269ZM31.6269 7.12195V7.41463H31.3342V7.12195H31.6269ZM31.6269 6.82927V7.12195H31.3342V6.82927H31.6269ZM31.6269 6.53659V6.82927H31.3342V6.53659H31.6269ZM31.6269 6.2439V6.53659H31.3342V6.2439H31.6269ZM31.6269 5.95122V6.2439H31.3342V5.95122H31.6269ZM31.6269 5.65854V5.95122H31.3342V5.65854H31.6269ZM31.3342 5.65854V5.95122H31.0415V5.65854H31.3342ZM31.3342 5.36585V5.65854H31.0415V5.36585H31.3342ZM31.3342 5.95122V6.2439H31.0415V5.95122H31.3342ZM31.3342 6.2439V6.53659H31.0415V6.2439H31.3342ZM31.3342 6.53659V6.82927H31.0415V6.53659H31.3342ZM31.3342 6.82927V7.12195H31.0415V6.82927H31.3342ZM31.3342 7.12195V7.41463H31.0415V7.12195H31.3342ZM31.3342 7.41463V7.70732H31.0415V7.41463H31.3342ZM30.7489 7.70732V8H30.4562V7.70732H30.7489ZM30.7489 7.41463V7.70732H30.4562V7.41463H30.7489ZM30.7489 7.12195V7.41463H30.4562V7.12195H30.7489ZM30.7489 6.82927V7.12195H30.4562V6.82927H30.7489ZM30.7489 6.53659V6.82927H30.4562V6.53659H30.7489ZM30.7489 6.2439V6.53659H30.4562V6.2439H30.7489ZM30.7489 5.95122V6.2439H30.4562V5.95122H30.7489ZM30.7489 5.65854V5.95122H30.4562V5.65854H30.7489ZM30.4562 0.682927V0.97561H30.1635V0.682927H30.4562ZM30.4562 0.97561V1.26829H30.1635V0.97561H30.4562ZM30.4562 1.26829V1.56098H30.1635V1.26829H30.4562ZM30.4562 1.56098V1.85366H30.1635V1.56098H30.4562ZM30.4562 1.85366V2.14634H30.1635V1.85366H30.4562ZM30.4562 2.14634V2.43902H30.1635V2.14634H30.4562ZM30.4562 2.43902V2.73171H30.1635V2.43902H30.4562ZM30.4562 2.73171V3.02439H30.1635V2.73171H30.4562ZM30.4562 3.02439V3.31707H30.1635V3.02439H30.4562ZM30.4562 3.31707V3.60976H30.1635V3.31707H30.4562ZM31.3342 0.682927V0.97561H31.0415V0.682927H31.3342ZM31.3342 0.97561V1.26829H31.0415V0.97561H31.3342ZM31.3342 1.26829V1.56098H31.0415V1.26829H31.3342ZM31.3342 1.56098V1.85366H31.0415V1.56098H31.3342ZM31.3342 1.85366V2.14634H31.0415V1.85366H31.3342ZM31.3342 2.14634V2.43902H31.0415V2.14634H31.3342ZM31.3342 2.73171V3.02439H31.0415V2.73171H31.3342ZM31.3342 3.02439V3.31707H31.0415V3.02439H31.3342ZM31.3342 3.31707V3.60976H31.0415V3.31707H31.3342ZM31.3342 3.60976V3.90244H31.0415V3.60976H31.3342ZM31.3342 3.90244V4.19512H31.0415V3.90244H31.3342ZM31.3342 4.19512V4.48781H31.0415V4.19512H31.3342ZM31.3342 4.48781V4.78049H31.0415V4.48781H31.3342ZM31.6269 4.78049V5.07317H31.3342V4.78049H31.6269ZM31.6269 5.07317V5.36585H31.3342V5.07317H31.6269ZM31.6269 5.36585V5.65854H31.3342V5.36585H31.6269ZM31.6269 4.48781V4.78049H31.3342V4.48781H31.6269ZM31.6269 4.19512V4.48781H31.3342V4.19512H31.6269ZM31.6269 3.90244V4.19512H31.3342V3.90244H31.6269ZM31.6269 3.60976V3.90244H31.3342V3.60976H31.6269ZM31.6269 3.31707V3.60976H31.3342V3.31707H31.6269ZM31.6269 3.02439V3.31707H31.3342V3.02439H31.6269ZM31.6269 2.73171V3.02439H31.3342V2.73171H31.6269ZM31.6269 2.43902V2.73171H31.3342V2.43902H31.6269ZM31.6269 2.14634V2.43902H31.3342V2.14634H31.6269ZM31.6269 1.85366V2.14634H31.3342V1.85366H31.6269ZM31.3342 2.43902V2.73171H31.0415V2.43902H31.3342ZM31.6269 1.56098V1.85366H31.3342V1.56098H31.6269ZM31.6269 1.26829V1.56098H31.3342V1.26829H31.6269ZM31.6269 0.97561V1.26829H31.3342V0.97561H31.6269ZM31.6269 0.682927V0.97561H31.3342V0.682927H31.6269ZM31.0415 0.682927V0.97561H30.7489V0.682927H31.0415ZM30.7489 0.682927V0.97561H30.4562V0.682927H30.7489ZM30.7489 0.97561V1.26829H30.4562V0.97561H30.7489ZM31.0415 0.97561V1.26829H30.7489V0.97561H31.0415ZM31.0415 1.26829V1.56098H30.7489V1.26829H31.0415ZM31.0415 1.56098V1.85366H30.7489V1.56098H31.0415ZM31.0415 1.85366V2.14634H30.7489V1.85366H31.0415ZM31.0415 2.14634V2.43902H30.7489V2.14634H31.0415ZM31.0415 2.43902V2.73171H30.7489V2.43902H31.0415ZM31.0415 2.73171V3.02439H30.7489V2.73171H31.0415ZM30.7489 3.02439V3.31707H30.4562V3.02439H30.7489ZM30.7489 3.31707V3.60976H30.4562V3.31707H30.7489ZM30.7489 2.73171V3.02439H30.4562V2.73171H30.7489ZM30.7489 2.43902V2.73171H30.4562V2.43902H30.7489ZM30.7489 2.14634V2.43902H30.4562V2.14634H30.7489ZM30.7489 1.85366V2.14634H30.4562V1.85366H30.7489ZM30.7489 1.56098V1.85366H30.4562V1.56098H30.7489ZM30.7489 1.26829V1.56098H30.4562V1.26829H30.7489ZM31.0415 3.02439V3.31707H30.7489V3.02439H31.0415ZM31.0415 3.31707V3.60976H30.7489V3.31707H31.0415ZM31.0415 3.60976V3.90244H30.7489V3.60976H31.0415ZM31.0415 3.90244V4.19512H30.7489V3.90244H31.0415ZM31.0415 4.19512V4.48781H30.7489V4.19512H31.0415ZM31.0415 4.48781V4.78049H30.7489V4.48781H31.0415ZM31.0415 4.78049V5.07317H30.7489V4.78049H31.0415ZM31.0415 5.07317V5.36585H30.7489V5.07317H31.0415ZM31.0415 5.36585V5.65854H30.7489V5.36585H31.0415ZM31.3342 5.07317V5.36585H31.0415V5.07317H31.3342ZM31.3342 4.78049V5.07317H31.0415V4.78049H31.3342ZM31.9196 4.19512V4.48781H31.6269V4.19512H31.9196ZM32.2123 4.19512V4.48781H31.9196V4.19512H32.2123ZM32.2123 4.48781V4.78049H31.9196V4.48781H32.2123ZM31.9196 4.48781V4.78049H31.6269V4.48781H31.9196ZM31.9196 3.60976V3.90244H31.6269V3.60976H31.9196ZM32.2123 3.60976V3.90244H31.9196V3.60976H32.2123ZM31.9196 4.78049V5.07317H31.6269V4.78049H31.9196ZM32.2123 4.78049V5.07317H31.9196V4.78049H32.2123ZM32.2123 3.90244V4.19512H31.9196V3.90244H32.2123ZM31.9196 3.90244V4.19512H31.6269V3.90244H31.9196ZM31.9196 0.682927V0.97561H31.6269V0.682927H31.9196ZM32.2123 0.682927V0.97561H31.9196V0.682927H32.2123ZM32.2123 0.97561V1.26829H31.9196V0.97561H32.2123ZM31.9196 0.97561V1.26829H31.6269V0.97561H31.9196ZM31.9196 1.26829V1.56098H31.6269V1.26829H31.9196ZM32.2123 1.26829V1.56098H31.9196V1.26829H32.2123ZM32.2123 1.56098V1.85366H31.9196V1.56098H32.2123ZM31.9196 1.56098V1.85366H31.6269V1.56098H31.9196ZM31.9196 1.85366V2.14634H31.6269V1.85366H31.9196ZM32.2123 1.85366V2.14634H31.9196V1.85366H32.2123ZM31.9196 7.70732V8H31.6269V7.70732H31.9196ZM32.2123 7.70732V8H31.9196V7.70732H32.2123ZM32.2123 7.41463V7.70732H31.9196V7.41463H32.2123ZM32.2123 7.12195V7.41463H31.9196V7.12195H32.2123ZM32.2123 6.82927V7.12195H31.9196V6.82927H32.2123ZM32.2123 6.53659V6.82927H31.9196V6.53659H32.2123ZM31.9196 6.53659V6.82927H31.6269V6.53659H31.9196ZM31.9196 6.82927V7.12195H31.6269V6.82927H31.9196ZM31.9196 7.12195V7.41463H31.6269V7.12195H31.9196ZM31.9196 7.41463V7.70732H31.6269V7.41463H31.9196ZM32.505 3.60976V3.90244H32.2123V3.60976H32.505ZM32.7976 3.60976V3.90244H32.505V3.60976H32.7976ZM33.0903 3.60976V3.90244H32.7976V3.60976H33.0903ZM33.0903 1.85366V2.14634H32.7976V1.85366H33.0903ZM32.7976 1.85366V2.14634H32.505V1.85366H32.7976ZM32.505 1.85366V2.14634H32.2123V1.85366H32.505ZM32.505 0.682927V0.97561H32.2123V0.682927H32.505ZM32.7976 0.682927V0.97561H32.505V0.682927H32.7976ZM33.0903 0.682927V0.97561H32.7976V0.682927H33.0903ZM33.0903 1.56098V1.85366H32.7976V1.56098H33.0903ZM33.0903 1.26829V1.56098H32.7976V1.26829H33.0903ZM32.7976 1.26829V1.56098H32.505V1.26829H32.7976ZM32.505 1.26829V1.56098H32.2123V1.26829H32.505ZM32.505 0.97561V1.26829H32.2123V0.97561H32.505ZM32.7976 0.97561V1.26829H32.505V0.97561H32.7976ZM33.0903 0.97561V1.26829H32.7976V0.97561H33.0903ZM32.505 1.56098V1.85366H32.2123V1.56098H32.505ZM32.7976 1.56098V1.85366H32.505V1.56098H32.7976ZM33.0903 4.19512V4.48781H32.7976V4.19512H33.0903ZM32.7976 4.19512V4.48781H32.505V4.19512H32.7976ZM32.505 4.19512V4.48781H32.2123V4.19512H32.505ZM32.505 3.90244V4.19512H32.2123V3.90244H32.505ZM32.7976 3.90244V4.19512H32.505V3.90244H32.7976ZM33.0903 3.90244V4.19512H32.7976V3.90244H33.0903ZM32.505 4.48781V4.78049H32.2123V4.48781H32.505ZM32.7976 4.48781V4.78049H32.505V4.48781H32.7976ZM33.0903 4.48781V4.78049H32.7976V4.48781H33.0903ZM33.0903 4.78049V5.07317H32.7976V4.78049H33.0903ZM32.7976 4.78049V5.07317H32.505V4.78049H32.7976ZM32.505 4.78049V5.07317H32.2123V4.78049H32.505ZM32.505 6.53659V6.82927H32.2123V6.53659H32.505ZM32.7976 6.53659V6.82927H32.505V6.53659H32.7976ZM33.0903 6.53659V6.82927H32.7976V6.53659H33.0903ZM33.0903 7.41463V7.70732H32.7976V7.41463H33.0903ZM32.7976 7.70732V8H32.505V7.70732H32.7976ZM32.505 7.70732V8H32.2123V7.70732H32.505ZM33.0903 7.70732V8H32.7976V7.70732H33.0903ZM32.7976 7.41463V7.70732H32.505V7.41463H32.7976ZM32.505 7.41463V7.70732H32.2123V7.41463H32.505ZM32.505 7.12195V7.41463H32.2123V7.12195H32.505ZM32.7976 7.12195V7.41463H32.505V7.12195H32.7976ZM33.0903 7.12195V7.41463H32.7976V7.12195H33.0903ZM33.0903 6.82927V7.12195H32.7976V6.82927H33.0903ZM32.7976 6.82927V7.12195H32.505V6.82927H32.7976ZM32.505 6.82927V7.12195H32.2123V6.82927H32.505ZM34.8464 1.85366V2.14634H34.5537V1.85366H34.8464ZM34.8464 6.53659V6.82927H34.5537V6.53659H34.8464ZM33.383 0.682927V0.97561H33.0903V0.682927H33.383ZM33.6757 0.682927V0.97561H33.383V0.682927H33.6757ZM33.9684 0.682927V0.97561H33.6757V0.682927H33.9684ZM34.2611 0.682927V0.97561H33.9684V0.682927H34.2611ZM34.5537 0.682927V0.97561H34.2611V0.682927H34.5537ZM34.5537 0.97561V1.26829H34.2611V0.97561H34.5537ZM34.8464 0.97561V1.26829H34.5537V0.97561H34.8464ZM34.8464 1.26829V1.56098H34.5537V1.26829H34.8464ZM34.8464 0.682927V0.97561H34.5537V0.682927H34.8464ZM34.8464 1.56098V1.85366H34.5537V1.56098H34.8464ZM34.5537 1.56098V1.85366H34.2611V1.56098H34.5537ZM34.2611 1.56098V1.85366H33.9684V1.56098H34.2611ZM33.9684 1.56098V1.85366H33.6757V1.56098H33.9684ZM33.6757 1.56098V1.85366H33.383V1.56098H33.6757ZM33.383 1.56098V1.85366H33.0903V1.56098H33.383ZM33.383 1.26829V1.56098H33.0903V1.26829H33.383ZM33.383 0.97561V1.26829H33.0903V0.97561H33.383ZM33.6757 0.97561V1.26829H33.383V0.97561H33.6757ZM33.9684 0.97561V1.26829H33.6757V0.97561H33.9684ZM34.2611 0.97561V1.26829H33.9684V0.97561H34.2611ZM34.2611 1.26829V1.56098H33.9684V1.26829H34.2611ZM34.5537 1.26829V1.56098H34.2611V1.26829H34.5537ZM33.9684 1.26829V1.56098H33.6757V1.26829H33.9684ZM33.6757 1.26829V1.56098H33.383V1.26829H33.6757ZM33.383 1.85366V2.14634H33.0903V1.85366H33.383ZM33.6757 1.85366V2.14634H33.383V1.85366H33.6757ZM33.9684 1.85366V2.14634H33.6757V1.85366H33.9684ZM34.2611 1.85366V2.14634H33.9684V1.85366H34.2611ZM34.5537 1.85366V2.14634H34.2611V1.85366H34.5537ZM34.8464 6.82927V7.12195H34.5537V6.82927H34.8464ZM34.5537 6.82927V7.12195H34.2611V6.82927H34.5537ZM34.5537 7.12195V7.41463H34.2611V7.12195H34.5537ZM34.5537 7.41463V7.70732H34.2611V7.41463H34.5537ZM34.5537 7.70732V8H34.2611V7.70732H34.5537ZM34.8464 7.41463V7.70732H34.5537V7.41463H34.8464ZM34.8464 7.12195V7.41463H34.5537V7.12195H34.8464ZM34.8464 7.70732V8H34.5537V7.70732H34.8464ZM33.383 7.70732V8H33.0903V7.70732H33.383ZM33.6757 7.70732V8H33.383V7.70732H33.6757ZM33.9684 7.70732V8H33.6757V7.70732H33.9684ZM33.9684 7.41463V7.70732H33.6757V7.41463H33.9684ZM34.2611 7.70732V8H33.9684V7.70732H34.2611ZM34.2611 7.41463V7.70732H33.9684V7.41463H34.2611ZM34.2611 7.12195V7.41463H33.9684V7.12195H34.2611ZM34.2611 6.82927V7.12195H33.9684V6.82927H34.2611ZM34.2611 6.53659V6.82927H33.9684V6.53659H34.2611ZM34.5537 6.53659V6.82927H34.2611V6.53659H34.5537ZM33.383 6.53659V6.82927H33.0903V6.53659H33.383ZM33.6757 6.53659V6.82927H33.383V6.53659H33.6757ZM33.9684 6.53659V6.82927H33.6757V6.53659H33.9684ZM33.9684 6.82927V7.12195H33.6757V6.82927H33.9684ZM33.9684 7.12195V7.41463H33.6757V7.12195H33.9684ZM33.6757 7.12195V7.41463H33.383V7.12195H33.6757ZM33.6757 6.82927V7.12195H33.383V6.82927H33.6757ZM33.383 6.82927V7.12195H33.0903V6.82927H33.383ZM33.383 7.12195V7.41463H33.0903V7.12195H33.383ZM33.383 7.41463V7.70732H33.0903V7.41463H33.383ZM33.6757 7.41463V7.70732H33.383V7.41463H33.6757ZM33.383 3.60976V3.90244H33.0903V3.60976H33.383ZM33.383 3.90244V4.19512H33.0903V3.90244H33.383ZM33.383 4.19512V4.48781H33.0903V4.19512H33.383ZM33.383 4.48781V4.78049H33.0903V4.48781H33.383ZM33.6757 4.48781V4.78049H33.383V4.48781H33.6757ZM33.6757 4.78049V5.07317H33.383V4.78049H33.6757ZM33.383 4.78049V5.07317H33.0903V4.78049H33.383ZM33.6757 3.60976V3.90244H33.383V3.60976H33.6757ZM33.6757 3.90244V4.19512H33.383V3.90244H33.6757ZM33.6757 4.19512V4.48781H33.383V4.19512H33.6757ZM33.9684 4.19512V4.48781H33.6757V4.19512H33.9684ZM34.2611 4.19512V4.48781H33.9684V4.19512H34.2611ZM34.2611 3.90244V4.19512H33.9684V3.90244H34.2611ZM34.2611 3.60976V3.90244H33.9684V3.60976H34.2611ZM33.9684 3.60976V3.90244H33.6757V3.60976H33.9684ZM33.9684 3.90244V4.19512H33.6757V3.90244H33.9684ZM33.9684 4.48781V4.78049H33.6757V4.48781H33.9684ZM33.9684 4.78049V5.07317H33.6757V4.78049H33.9684ZM34.2611 4.78049V5.07317H33.9684V4.78049H34.2611ZM34.2611 4.48781V4.78049H33.9684V4.48781H34.2611Z" fill="black"/>
</svg>
