<svg width="21" height="19" viewBox="0 0 21 19" fill="none" xmlns="http://www.w3.org/2000/svg">
<path d="M18.0431 9.44493C18.4651 10.5495 18.4801 12.7962 18.0614 13.4993C17.6425 14.2022 16.5587 15.0064 15.8078 15.1343C14.5165 15.3544 14.0243 14.5184 13.1817 14.8718C12.339 15.2251 12.1791 16.7047 12.6295 17.0627C13.0799 17.4207 14.385 17.7571 15.5572 17.4008C16.7295 17.0445 20.1158 16.8233 20.2577 12.7307C20.3995 8.63814 19.9281 7.79386 19.7029 6.79662C19.4722 5.7736 19.508 4.8166 18.7923 4.75986C18.0768 4.70313 16.9767 4.96185 16.9623 5.59928C17.1839 7.08325 17.674 8.05641 18.0431 9.44493Z" fill="#FCAFC0"/>
<path d="M15.6144 2.71334C15.7523 3.63965 16.2303 3.92236 16.9664 3.76255C17.7024 3.60275 18.5345 2.59374 18.4713 1.79046C18.4082 0.987172 17.9916 0.832288 17.3373 0.791041C16.6832 0.749768 15.5215 1.94496 15.6144 2.71334Z" fill="#FCAFC0"/>
<path d="M12.2395 5.6581C11.5777 5.73154 10.701 6.16018 10.1829 6.60424C9.21283 7.48504 8.75576 8.14323 8.78016 9.18978C8.80455 10.2363 9.08479 12.0276 10.0603 12.7477C11.0297 13.4133 11.4301 13.8107 13.2609 13.6627C15.0918 13.5148 16.1026 12.6294 16.5061 12.1428C16.9099 11.6562 17.4839 10.6537 16.8159 10.1756C16.5365 9.98573 15.9342 10.0526 15.57 10.1482C15.2118 10.2984 15.3258 11.2365 14.7474 11.5216C13.6912 11.9701 12.237 12.392 11.2765 11.3389C10.316 10.2858 11.3666 10.1058 11.9464 10.0415C12.4347 9.93207 14.6574 9.91816 15.2554 9.46521C15.8535 9.01228 16.5524 8.50959 15.9206 7.36478C15.2887 6.21996 14.2277 5.43745 12.2395 5.6581ZM12.3468 7.30708C12.9607 7.18369 14.2031 7.10544 14.3004 7.86777C14.3563 8.30336 13.1523 8.3774 12.7249 8.42483C12.3859 8.46245 10.9675 8.79368 10.9526 8.40876C10.9055 7.80652 11.7268 7.37588 12.3468 7.30708Z" fill="#FCAFC0"/>
<path d="M1.91053 14.77C1.56423 14.6893 1.65242 12.2721 1.59317 11.7399C1.53391 11.2077 1.05076 6.99617 0.720471 5.71153C0.390172 4.42688 0.260541 3.26627 0.588467 2.7678C0.916378 2.26934 1.67284 2.38438 2.19547 2.56116C2.7181 2.73793 2.81676 5.79913 2.87364 6.46968C2.93057 7.14021 2.9104 7.07298 2.95631 7.44462C3.0022 7.81625 2.94758 8.88646 3.15963 8.69656C3.37165 8.50666 3.23619 7.08942 5.15159 6.84682C7.06699 6.60422 7.40174 7.34756 7.7073 8.18106C8.01287 9.01456 8.47329 13.1318 8.11683 13.4914C7.76032 13.851 6.65789 14.3429 6.38016 13.7333C6.10246 13.124 6.8914 9.18973 5.63717 8.83577C4.38289 8.48182 3.74806 9.85319 3.54955 10.4296C3.35103 11.006 3.95099 13.7393 3.57985 14.2855C3.19537 14.7059 2.25683 14.8507 1.91053 14.77Z" fill="#FCAFC0"/>
</svg>