<svg width="1042" height="412" viewBox="0 0 1042 412" fill="none" xmlns="http://www.w3.org/2000/svg">
<path d="M1039.25 10.4854C1044.17 20.0018 1041.03 32.5018 1032.34 38.3087C1023.08 44.5018 1008.51 42.0019 1002.8 31.2022C997.931 22.0018 1001.57 9.42155 1010.63 3.6578C1019.08 -1.71536 1033.84 0.0018034 1039.25 10.4854Z" fill="#FCAFC0"/>
<path d="M931.466 67.9287C926.626 85.9556 932.575 103.69 950.353 110.415C977.075 120.522 1002.68 98.5018 1005.1 83.9952C1008.53 63.5018 996.075 48.3103 982.142 42.0911C960.075 32.2419 936.306 49.9017 931.466 67.9287Z" fill="#FCAFC0"/>
<path d="M980.862 144.001C979.53 158.002 987.575 167.423 1000.57 168.908C1011.08 170.108 1027.58 163.296 1029.21 148.713C1031 132.777 1023.08 124.476 1012.59 122.203C996.075 118.619 982.075 131.245 980.862 144.001Z" fill="#FCAFC0"/>
<path fill-rule="evenodd" clip-rule="evenodd" d="M934.866 261.911C963.248 262.843 984.236 248.726 986.876 219.496C992.5 149.081 898.381 114 846.506 149.081C806.707 175.997 790.404 232.764 809.74 276.736C832.161 327.726 896.261 342.186 944.26 320.238C955.658 314.63 960.352 300.845 954.745 289.447C949.163 278.101 935.478 273.398 924.111 278.885C899.736 290.147 863.612 284.973 851.849 258.22C848.651 250.948 847.243 242.413 847.743 233.543C872.273 251.075 904.822 260.923 934.866 261.911ZM867.974 190.477C880.47 179.734 897.176 177.612 912.876 181.681C928.222 185.659 943.018 198.776 941.005 215.909C915.5 219.496 884.973 209.386 867.974 190.477Z" fill="#FCAFC0"/>
<path d="M716.738 127.077C707.391 116.175 690.977 114.915 680.076 124.262C668.624 134.08 668.998 149.422 677.262 160.925C696.94 188.066 694.312 234.523 692.151 272.71V272.717C691.529 283.717 690.945 294.032 690.945 303C690.945 317.359 702.586 329 716.945 329C731.305 329 742.945 317.359 742.945 303C742.945 291.434 742.959 280.232 742.972 268.916V268.734L742.972 268.641C742.986 257.054 743 245.344 743 233C743 212.5 748 174.949 778.206 180.615C792.5 183.296 805.906 173.968 808.554 159.854C811.201 145.741 801.906 132.154 787.793 129.507C766.287 125.472 743.918 129.986 726.812 143.829C724.177 137.701 720.892 131.921 716.738 127.077Z" fill="#FCAFC0"/>
<path fill-rule="evenodd" clip-rule="evenodd" d="M497.903 169.534C506.701 177.038 521.98 175.839 529.784 166.316C538.111 157.383 552.595 155.026 563.927 155.026C582.924 155.026 592.606 159.516 597.66 163.678C606.915 171.299 608.605 184.698 608.756 196.118C595.115 191.306 579.812 191.158 563.121 194.205C522.265 201.663 492.645 232.57 491.28 266.034C489.47 310.442 526.785 331.752 566.3 327.459C586.361 325.279 606.968 319.983 622.669 306.324C625.471 320.62 636.525 330.993 651.502 326.755C663.47 323.368 670.49 310.692 667.181 298.442C665.828 293.431 664.554 288.381 663.279 283.325C659.516 268.41 655.74 253.441 649.871 239.271C652.964 217.645 655.773 195.591 651.672 173.882C648.622 157.734 641.385 140.612 625.846 127.816C610.422 115.115 589.791 109 563.927 109C539.448 109 510.846 116.829 494.985 137.173C487.346 146.988 488.616 161.029 497.903 169.534ZM536.059 270.24C538.36 244.569 590.768 223.064 603.553 247.624C604.454 270.24 584.414 279.206 561.554 281.69C553.133 282.604 534.875 283.44 536.059 270.24Z" fill="#FCAFC0"/>
<path d="M369.791 24.3057C394.002 1.06175 432.003 5.84486 432.002 42.8449C432.002 73.4016 384.503 98.8449 361.415 76.9339C346.796 61.231 355.503 38.0232 369.791 24.3057Z" fill="#FCAFC0"/>
<path d="M452.826 136.068C445.662 118.897 428.509 105.285 408.262 118.897C397.009 126.462 398.261 141.925 403.86 153.91C411.509 170.285 415.088 189.124 418.029 206.491C423.328 237.785 424.592 272.705 416.197 299.516C401.089 347.764 326.844 367.263 283.489 356.105C269.583 352.527 255.408 360.899 251.83 374.805C248.251 388.711 256.623 402.886 270.529 406.465C341.289 424.675 442.212 390.452 465.821 315.054C477.839 276.674 475.109 232.125 469.299 197.811C465.766 176.941 461.01 155.682 452.826 136.068Z" fill="#FCAFC0"/>
<path fill-rule="evenodd" clip-rule="evenodd" d="M362.655 143.3C371.895 153.261 377.218 166.288 377.293 181.407C377.436 210.227 347.277 231.507 324.156 242.676C308.589 250.195 288.983 256.212 268.753 256.34C280.555 273.492 299.037 282.213 318.335 277.524C332.666 274.041 346.656 265.395 355.2 253.221C362.536 242.302 377.318 239.315 388.325 246.569C399.393 253.862 402.453 268.747 395.159 279.815C380.589 301.973 355.03 318.003 329.67 324.166C272.608 338.033 229.356 297.549 214.763 254.554C207.264 232.46 206.059 207.216 214.616 183.878C223.379 159.978 241.794 139.795 270.029 128.116C299.074 116.102 340.28 119.178 362.655 143.3ZM257.754 207.211C261.126 190.853 273.134 178.776 288.376 172.471C297.467 168.711 327.111 164.573 329.174 179.799C316.351 200.253 280.327 212.287 257.754 207.211Z" fill="#FCAFC0"/>
<path d="M1.5561 43.2147C-2.44629 32.2109 1.40477 19.4954 11.5806 12.7115C28.548 1.39989 47.7079 13.5552 52.1451 31.1501C62.1362 70.7681 65.5317 112.316 66.7077 153.01C85.1778 140.133 108.102 133.782 130.572 135.652C151.769 137.416 167.836 147.629 176.901 167.351C195.52 207.86 189.503 257.845 188.002 300.845C188.002 315.204 175.362 329.345 161.003 329.345C146.644 329.345 135.503 315.704 135.503 301.345C135.503 264.875 145.503 220.845 129.061 187.85C93.5201 183.105 70.0029 216.845 66.0029 248.845C62.0029 280.845 62.0029 302.345 62.0029 302.345C62.0029 316.704 50.3623 329.345 36.0029 329.345C20.2488 329.345 9.28976 317.878 9.50453 300.753C11.0029 258.345 16.0029 216.215 16.0029 173.345C16.0029 130.919 12.512 84.7379 1.5561 43.2147Z" fill="#FCAFC0"/>
</svg>
